<svg xmlns="http://www.w3.org/2000/svg" id="map" width="700" height="700"><g id="states"><rect class="background" width="700" height="700" /><path id="path-0" d="M 286.852 630.646 L 287.181 632.139 L 288.534 631.984 L 287.674 634.888 L 285.439 633.118 Z M 270.061 625.878 L 274.605 626.693 L 275.05 628.907 L 277.575 630.613 L 281.808 630.608 L 283.237 635.127 L 281.844 635.963 L 283.495 637.104 L 284.99 636.186 L 286.179 638.471 L 284.459 638.4 L 283.671 640.129 L 284.953 642.083 L 283.129 641.272 L 282.212 646.127 L 279.675 647.117 L 275.267 655.695 L 269.828 655.849 L 266.053 659.299 L 258.377 659.589 L 252.67 663.963 L 245.137 663.42 L 240.836 665.607 L 238.752 663.503 L 236.652 664.448 L 234.55 663.033 L 230.626 664.802 L 226.582 663.472 L 223.492 665.751 L 222.96 668.73 L 220.272 668.339 L 220.323 666.984 L 210.561 658.311 L 210.502 652.209 L 219.103 644.884 L 220.251 640.803 L 223.889 639.646 L 225.213 637.084 L 238.453 633.896 L 242.487 631.116 L 255.868 629.349 L 256.927 627.089 L 259.085 628.638 Z M 227.517 580.881 L 227.958 582.151 L 225.951 583.965 L 224.275 581.327 Z" /><path id="path-1" d="M 409.852 500.242 L 412.598 500.704 L 413.49 503.271 L 415.849 501.518 L 414.927 503.822 L 412.487 502.946 L 409.579 504.704 L 410.404 503.441 L 408.577 501.75 Z M 420.998 500.114 L 423.49 500.931 L 423.503 502.308 L 420.244 501.356 Z M 442.797 500.276 L 443.382 501.443 L 440.775 502.091 Z M 411.355 497.088 L 410.582 498.268 L 408.074 496.86 Z M 404.034 493.137 L 406.465 494.147 L 405.838 496.165 L 403.221 494.255 Z M 431.744 490.337 L 432.041 493.537 L 430.898 494.22 L 430.027 493.383 Z M 434.598 488.625 L 436.409 490.584 L 431.906 489.922 Z M 427.91 488.005 L 427.423 489.304 L 425.409 489.077 Z M 421.668 487.354 L 422.266 488.553 L 420.668 487.476 Z M 437.309 486.743 L 440.941 488.648 L 435.87 487.672 Z M 433.556 480.97 L 434.487 484.83 L 436.166 485.274 L 434.256 487.815 L 432.016 487.375 L 431.217 484.385 L 431.406 482.109 L 431.854 484.217 L 432.515 482.376 L 433.754 483.074 L 432.071 480.749 Z M 399.945 478.659 L 400.722 479.933 L 399.126 479.309 Z M 409.894 478.087 L 412.678 481.007 L 409.997 481.528 L 410.369 483.414 L 406.167 480.718 L 407.903 478.303 Z M 405.913 475.748 L 409.484 477.527 L 404.991 479.826 L 403.183 476.835 Z M 390.322 468.835 L 388.199 474.851 L 389.446 475.052 L 389.173 473.229 L 391.723 471.445 L 391.694 473.192 L 393.538 474.133 L 392.252 476.63 L 395.47 479.498 L 389.506 477.375 L 387.149 478.794 L 384.171 477.772 L 383.42 474.658 L 385.937 470.79 L 387.79 468.83 Z M 377.095 465.692 L 379.976 466.367 L 381.383 469.741 L 377.312 474.057 L 379.187 478.655 L 381.793 479.401 L 381.772 481.67 L 383.841 481.815 L 386.347 478.912 L 390.002 478.75 L 393.521 480.69 L 391.811 485.041 L 392.784 488.5 L 390.453 491.713 L 392.94 493.431 L 389.064 494.352 L 389.594 492.279 L 388.457 491.693 L 387.88 493.212 L 386.061 492.139 L 385.643 493.43 L 382.992 493.446 L 382.236 485.469 L 377.917 486.829 L 378.749 490.253 L 376.716 491.999 L 373.375 491.281 L 372.999 488.98 L 371.39 488.622 L 372.917 486.409 L 368.547 476.106 L 370.766 473.415 L 370.371 470.732 L 373.881 470.95 L 372.706 469.464 L 373.392 467.178 Z M 438.878 463.618 L 437.259 464.557 L 438.453 466.219 L 437.417 467.878 L 436.22 463.609 L 436.888 462.205 Z M 383.754 461.501 L 386.669 463.133 L 384.403 463.435 Z M 452.414 454.721 L 456.399 456.624 L 455.032 459.712 L 453.695 459.784 L 454.045 462.555 L 456.933 465.61 L 456.01 471.446 L 453.926 473.293 L 456.144 473.928 L 456.579 472.282 L 459.319 471.608 L 458.556 474.806 L 456.601 475.233 L 457.671 477.813 L 455.967 477.031 L 454.437 478.218 L 456.695 478.884 L 458.224 484.367 L 455.212 483.448 L 455.092 481.334 L 453.479 483.209 L 453.5 481.935 L 451.314 481.396 L 451.856 484.478 L 448.39 487.137 L 449.797 489.501 L 452.159 489.362 L 452.035 491.219 L 451.525 489.978 L 447.341 490.254 L 448.319 493.434 L 442.475 494.27 L 443.097 491.763 L 445.377 490.839 L 442.495 489.696 L 444.423 485.443 L 440.346 486.738 L 441.692 484.47 L 439.248 485.749 L 438.773 484.185 L 443.138 483.113 L 444.237 479.462 L 442.4 477.738 L 443.625 477.319 L 442.139 476.469 L 441.194 478.985 L 437.446 479.021 L 436.125 481.761 L 435.884 478.412 L 433.359 478.071 L 432.432 473.821 L 437.733 468.333 L 441.628 471.188 L 443.332 469.467 L 447.083 472.029 L 446.453 469.119 L 443.041 465.442 L 445.302 462.882 L 445.311 464.295 L 447.726 463.204 L 449.555 464.197 L 449.532 461.83 L 446.859 461.398 L 445.921 462.63 L 445.766 461.244 L 449.376 456.714 L 449.253 461.658 L 451.043 460.619 L 450.565 459.259 L 452.3 460.891 L 452.536 458.622 L 451.152 458.462 Z M 440.145 451.167 L 441.648 453.13 L 439.167 451.571 Z M 376.016 352.821 L 376.873 354.937 L 379.463 354.199 L 380.023 358.631 L 385.372 358.217 L 388.182 361.75 L 393.877 360.371 L 399.144 362.495 L 399.478 366.446 L 402.272 367.113 L 406.514 374.281 L 406.628 378.711 L 402.877 380.176 L 402.608 382.487 L 404.812 381.932 L 409.159 384.172 L 410.339 382.286 L 412.181 383.788 L 416.5 382.323 L 421.191 383.813 L 421.898 387.423 L 423.76 388.03 L 429.983 384.297 L 435.662 384.193 L 435.839 380.171 L 437.654 379.101 L 438.619 386.034 L 443.257 390.456 L 453.234 389.409 L 454.63 391.364 L 462.534 392.866 L 463.999 390.233 L 468.31 390.05 L 471.08 384.708 L 473.417 385.081 L 475.732 383.299 L 481.108 387.851 L 483.427 386.452 L 485.209 387.174 L 485.044 390.664 L 480.313 393.48 L 482.724 395.248 L 482.58 397.206 L 493.329 401.184 L 496.834 407.002 L 499.021 408.64 L 501.976 407.768 L 504.214 411.335 L 501.768 414.344 L 501.688 417.015 L 499.956 418.134 L 495.729 416.453 L 493.715 423.479 L 484.342 427.299 L 482.879 431.894 L 471.987 434.328 L 470.674 435.731 L 471.193 441.537 L 469.576 439.701 L 463.336 440.877 L 468.062 446.431 L 463.381 450.048 L 462.173 449.303 L 464.094 448.162 L 462.762 447.876 L 462.877 446.116 L 461.322 447.798 L 460.353 447.078 L 460.383 448.348 L 458.182 447.658 L 457.054 448.855 L 455.501 446.867 L 453.583 447.852 L 454.285 444.674 L 452.657 441.446 L 451.158 445.503 L 449.235 441.766 L 445.365 443.308 L 445.77 440.208 L 444.144 439.279 L 443.684 435.985 L 446.646 434.531 L 445.634 434.388 L 443.378 434.814 L 441.36 437.481 L 444.507 442.749 L 442.077 443.791 L 444.804 443.761 L 443.924 445.237 L 447.151 449.129 L 445.257 450.661 L 448.241 451.464 L 442.261 453.329 L 444.34 451.212 L 441.088 451.559 L 441.024 449.639 L 442.884 448.934 L 439.443 448.565 L 438.645 445.479 L 436.903 448.044 L 430.423 447.013 L 433.026 450.366 L 429.342 451.004 L 428.208 452.938 L 427.009 452.093 L 422.97 453.588 L 423.813 455.266 L 421.153 458.269 L 424.42 457.392 L 425.439 454.629 L 430.353 453.326 L 429.848 451.41 L 431.301 451.966 L 432.158 450.479 L 433.433 453.203 L 431.232 453.831 L 435.448 457.364 L 431.538 460.826 L 426.26 460.121 L 426.304 461.411 L 429.716 462.015 L 427.562 474.253 L 429.869 472.423 L 429.379 469.549 L 433.005 472.375 L 431.901 474.504 L 430.899 473.233 L 430.527 477.37 L 427.671 478.354 L 429.525 479.719 L 429.581 482.344 L 428.75 481.569 L 429.368 483.459 L 427.388 483.703 L 428.941 484.937 L 427.785 487.261 L 425.273 486.86 L 423.93 483.184 L 422.025 483.231 L 423.423 482.968 L 423.491 481.025 L 418.773 479.748 L 419.463 477.896 L 420.186 479.14 L 421.078 477.824 L 424.186 481.243 L 423.972 479.358 L 425.986 479.01 L 423.514 478.61 L 424.406 478.078 L 422.729 476.633 L 427.492 475.517 L 424.055 474.8 L 423.227 472.162 L 422.879 474.773 L 420.627 472.618 L 420.25 474.35 L 416.77 472.839 L 415.689 471.046 L 416.67 470.107 L 421.276 470.053 L 420.778 468.361 L 419.304 468.665 L 420.288 466.794 L 417.928 463.956 L 415.967 469.689 L 414.18 469.289 L 413.302 471.183 L 411.824 467.679 L 412.799 466.435 L 408.493 465.679 L 405.903 466.904 L 406.417 471.872 L 402.125 470.126 L 399.857 472.549 L 396.828 469.501 L 397.863 468.225 L 395.333 469.034 L 395.552 468.053 L 392.18 467.577 L 390.354 468.762 L 392.149 467.514 L 389.952 464.318 L 392.133 462.047 L 390.81 459.896 L 391.961 457.55 L 390.437 456.685 L 392.54 449.169 L 390.262 451.379 L 389.149 456.085 L 386.612 454.057 L 384.845 455.497 L 386.739 454.96 L 388.919 458.189 L 387.905 461.48 L 386.868 459.877 L 385.499 462.262 L 383.633 460.054 L 382.631 462.266 L 381.467 461.878 L 380.564 460.245 L 381.781 459.481 L 379.701 457.743 L 377.729 464.703 L 372.487 465.693 L 371.887 463.887 L 371.448 465.308 L 368.851 465.475 L 369.447 466.548 L 366.498 466.409 L 364.567 462.592 L 366.703 457.496 L 364.723 453.014 L 362.369 452.336 L 361.915 450.246 L 357.8 447.321 L 357.74 443.952 L 350.791 437.344 L 350.156 430.028 L 346.427 423.434 L 350.708 420.367 L 349.716 416.383 L 355.709 407.261 L 352.29 405.479 L 353.6 400.913 L 351.466 396.407 L 349.87 396.418 L 347.486 392.996 L 349.738 390.615 L 349.965 387.808 L 352.127 386.65 L 350.666 383.367 L 354.596 375.828 L 354.969 368.862 L 360.174 365.535 L 362.587 359.943 L 363.929 360.853 L 369.162 358.926 L 372.099 357.013 L 373.698 352.589 L 376.333 351.616 Z" /><path id="path-2" d="M 518.293 204.619 L 519.541 210.008 L 524.393 215.046 L 522.478 218.393 L 522.99 235.401 L 529.088 249.92 L 528.27 259.746 L 525.1 261.676 L 522.68 267.335 L 522.778 271.901 L 526.643 281.001 L 524.713 284.218 L 524.445 292.765 L 520.48 299.06 L 519.091 307.267 L 520.228 314.935 L 518.929 318.263 L 520.9 319.927 L 521.293 325.474 L 525.448 328.084 L 525.42 329.623 L 523.293 330.972 L 523.26 332.744 L 519.866 334.082 L 520.083 336.04 L 518.913 335.481 L 519.973 337.947 L 522.296 337.973 L 520.703 340.055 L 522.623 339.71 L 526.113 342.491 L 531.389 338.447 L 535.661 331.352 L 537.798 332.099 L 539.143 336.008 L 538.595 341.149 L 536.171 343.005 L 535.701 347.275 L 532.916 350.127 L 534.709 353.384 L 532.946 356.356 L 534.537 356.779 L 530.349 366.502 L 530.618 370.845 L 527.753 381.001 L 524.884 382.671 L 517.108 379.408 L 511.437 383.593 L 507.591 381.687 L 507.69 376.925 L 503 374.472 L 499.697 375.402 L 497.095 374.097 L 490.544 377.845 L 489.604 381.533 L 490.905 383.704 L 487.652 382.907 L 486.672 385.03 L 485.082 384.659 L 481.759 387.896 L 475.459 383.273 L 473.417 385.081 L 471.08 384.708 L 468.31 390.05 L 463.999 390.233 L 462.597 392.846 L 454.63 391.364 L 453.234 389.409 L 443.257 390.456 L 438.619 386.034 L 437.701 375.403 L 442.8 372.397 L 446.311 372.634 L 446.878 376.607 L 452.711 374.476 L 453.961 370.311 L 452.628 366.395 L 456.012 364.391 L 455.135 362.132 L 456.822 358.425 L 457.99 359.176 L 460.256 357.385 L 460.082 352.404 L 457.944 349.854 L 458.7 344.684 L 456.782 340.928 L 453.806 339.539 L 446.393 340.717 L 440.12 346.066 L 437.875 343.804 L 438.356 349.515 L 435.254 355.008 L 432.031 353.348 L 432.78 349.079 L 430.672 348.231 L 427.247 350.83 L 424.294 356.731 L 424.565 359.223 L 430.918 360.099 L 433.292 362.781 L 432.154 364.192 L 427.499 364.049 L 424.143 369.703 L 428.567 373.912 L 428.696 376.662 L 427.111 377.844 L 420.815 376.666 L 421.809 380.156 L 425.745 383.708 L 424.179 387.371 L 421.898 387.423 L 420.743 383.49 L 416.5 382.323 L 412.181 383.788 L 410.339 382.286 L 409.159 384.172 L 404.812 381.932 L 402.587 382.476 L 402.877 380.176 L 406.628 378.711 L 406.514 374.281 L 402.272 367.113 L 399.478 366.446 L 399.144 362.495 L 393.877 360.371 L 388.182 361.75 L 385.372 358.217 L 380.023 358.631 L 379.463 354.199 L 376.068 354.178 L 375.842 349.937 L 378.619 347.482 L 375.196 341.884 L 375.308 338.829 L 379.157 335.033 L 380.96 335.475 L 383.411 333.376 L 383.903 327.423 L 386.846 323.096 L 385.257 317.945 L 388.415 316.648 L 390.8 318.439 L 393.178 317.826 L 390 312.931 L 391.727 310.928 L 389.632 309.649 L 383.298 311.489 L 378.197 307.48 L 378.003 305.541 L 375.957 309.025 L 372.81 308.869 L 371.894 304.58 L 376.687 298.743 L 373.91 294.796 L 375.852 291.316 L 375.091 282.677 L 378.167 281.04 L 377.701 278.612 L 374.989 277.455 L 374.432 274.416 L 370.205 273.514 L 367.768 269.753 L 373.591 268.445 L 372.377 266.104 L 375.576 263.138 L 376.504 266.505 L 379.819 269.476 L 380.623 262.234 L 375.337 260.183 L 376.96 258.678 L 380.258 259.213 L 383.403 253.624 L 385.555 255.873 L 388.469 254.458 L 393.972 257.194 L 390.219 252.314 L 392.794 244.082 L 395.936 246.507 L 400.161 241.99 L 407.943 244.519 L 407.636 240.088 L 409.844 240.309 L 410.341 237.345 L 414.256 239.274 L 417.5 244.089 L 421.923 246.016 L 423.985 244.331 L 427.491 244.715 L 430.214 240.318 L 430.137 238.343 L 427.798 236.935 L 429.536 230.738 L 436.498 223.652 L 440.392 222.276 L 441.608 217.965 L 445.54 215.752 L 447.643 217.39 L 449.817 214.213 L 459.242 218.671 L 459.784 213.65 L 460.552 214.374 L 461.964 210.97 L 467.003 212.959 L 468.499 215.87 L 472.85 216.708 L 475.651 211.001 L 488.678 214.307 L 492.305 209.988 L 499.086 213.722 L 500.926 217.075 L 505.958 217.408 L 504.761 213.241 L 509.211 208.001 L 511.378 208.311 L 514.265 205.025 Z M 665.949 155.327 L 667.264 156.334 L 666.201 157.815 L 667.38 163.128 L 663.856 164.829 L 662.927 167.016 L 656.677 164.362 L 654.902 158.431 Z" /><path id="path-3" d="M 320.607 568.609 L 322.194 569.07 L 323.267 571.974 L 320.813 572.143 Z M 319.276 568.533 L 319.627 572.15 L 322.288 575.327 L 319.394 574.241 L 318.122 571.897 L 317.436 569.844 Z M 251.635 562.769 L 253.406 564.317 L 251.177 564.419 Z M 108.221 564.583 L 111.038 565.691 L 113.048 570.161 L 110.878 570.481 L 107.013 567.248 L 108.107 567.3 Z M 117.057 565.364 L 116.739 567.245 L 116.297 563.802 Z M 281.079 559.862 L 282.247 561.665 L 278.324 560.913 Z M 189.659 558.105 L 189.726 559.577 L 189.274 556.812 Z M 247.864 555.078 L 250.238 557.049 L 252.517 556.303 L 255.105 557.673 L 254.365 558.703 L 253.038 557.463 L 253.034 558.998 L 251.88 557.136 L 249.312 560.248 L 244.323 561.847 L 243.547 557.277 Z M 241.514 553.603 L 241.183 555.369 L 240.369 553.796 Z M 258.601 553.292 L 260.92 554.789 L 258.198 556.178 L 260.747 558.857 L 259.375 559.266 L 258.417 563.086 L 257.315 560.767 L 256.339 562.014 L 255.336 558.803 L 257.671 556.19 L 255.866 554.07 Z M 244.155 552.739 L 244.08 554.234 L 241.667 555.118 Z M 268.422 551.344 L 269.408 553.189 L 268.152 555.382 L 267.185 552.582 Z M 280.79 550.814 L 282.672 551.248 L 282.684 554.164 L 284.544 554.018 L 283.245 557.557 L 279.735 558.546 L 278.194 556.66 L 277.329 558.446 L 277.424 552.769 Z M 180.482 551.024 L 181.125 552.138 L 179.653 551.677 Z M 249.676 548.706 L 250.126 550.054 L 253.495 549.885 L 255.021 551.924 L 253.061 552.752 L 253.857 555.468 L 250.687 555.74 L 247.715 553.978 L 249.466 550.4 L 248.178 548.848 Z M 315.771 546.768 L 315.997 551.399 L 314.274 550.482 L 312.401 551.536 Z M 254.413 546.849 L 255.235 548.3 L 252.064 548.728 Z M 189.539 547.541 L 190.909 548.035 L 188.297 549.298 L 188.298 547.46 Z M 199.999 546.336 L 201.442 548.046 L 198.561 550.534 L 197.537 548.28 L 199.358 548.46 Z M 187.94 545.823 L 186.815 547.964 L 185.258 547.358 Z M 194.43 543.523 L 194.529 545.163 L 196.049 545.107 L 195.485 546.722 L 192.944 544.784 Z M 249.228 542.996 L 249.832 544.001 L 246.874 544.024 Z M 324.988 542.245 L 326.663 542.355 L 324.816 544.156 Z M 252.248 540.624 L 252.141 542.131 L 250.352 542.378 Z M 196.694 539.074 L 195.672 540.445 L 194.918 539.476 Z M 199.009 538.896 L 200.38 540.566 L 203.672 539.674 L 204.158 544.241 L 202.812 542.903 L 201.592 544.171 L 201.183 542.367 L 200.485 544.098 L 196.588 542.12 Z M 299.692 537.711 L 299.64 538.782 L 298.254 537.804 Z M 289.768 536.367 L 292.697 538.383 L 288.404 540.972 L 286.964 537.896 Z M 198.033 536.369 L 200.851 538.858 L 198.676 537.589 L 194.999 538.249 L 194.403 536.602 Z M 275.722 534.913 L 279.72 536.769 L 281.333 535.914 L 281.293 537.38 L 279.741 537.652 L 279.982 540.012 L 278.128 538.6 L 275.929 541.275 L 274.755 538.252 L 271.094 539.299 L 267.229 537.166 L 269.837 537.16 L 270.579 535.557 L 272.404 537.175 Z M 196.314 534.067 L 197.699 536.06 L 196.468 536.062 Z M 294.479 532.239 L 295.575 534.933 L 298.391 533.728 L 301.007 536.798 L 297.665 535.682 L 299.113 537.066 L 296.495 537.719 L 295.128 540.203 L 294.477 538.373 L 296.102 536.513 L 294.28 537.448 L 292.811 536.543 L 293.618 535.514 L 289.83 534.194 L 291.755 534.318 L 292.19 532.124 Z M 300.113 530.297 L 299.966 532.159 L 297.688 532.875 L 298.103 531.003 Z M 295.567 530.075 L 296.022 531.137 L 294.334 530.886 Z M 260.84 529.176 L 264.917 531.421 L 266.299 537.397 L 269.294 539.666 L 268.242 540.989 L 269.797 542.554 L 265.645 540.548 L 266.002 542.646 L 261.832 541.983 L 259.337 538.343 L 256.842 537.894 L 256.272 531.844 L 257.406 530.321 L 256.155 530.877 L 255.031 529.394 L 257.602 530.279 Z M 285.81 528.016 L 284.932 531.387 L 286.227 533.269 L 282.108 534.759 L 278.037 532.632 L 278.135 528.18 L 279.131 529.593 L 279.813 528.646 L 284.486 530.555 Z M 314.741 527.824 L 317.279 531.68 L 314.889 530.914 L 315.453 529.095 L 313.756 528.155 Z M 127.438 530.213 L 129.536 531.249 L 127.747 531.976 L 126.391 528.899 Z M 263.58 527.534 L 264.93 528.727 L 262.349 527.912 Z M 320.251 524.55 L 321.411 524.658 L 320.817 525.905 Z M 275.27 524.562 L 276.144 527.079 L 274.27 527.207 L 275.815 528.183 L 276.756 527.151 L 278.428 530.572 L 274.91 532.065 L 271.306 531.531 L 269.346 534.811 L 269.939 531.575 L 267.051 531.853 L 268.502 528.343 L 270.817 525.58 Z M 295.704 522.811 L 297.456 523.458 L 298.397 526.248 L 297.027 529.504 L 293.248 523.133 Z M 368.46 522.399 L 368.161 523.531 L 369.581 523.449 L 368.453 528.498 L 366.605 527.755 L 368.04 525.747 L 366.495 525.943 Z M 127.756 523.267 L 127.751 524.787 L 125.937 525.37 Z M 335.612 521.11 L 338.424 522.633 L 339.604 520.837 L 342.76 523.967 L 342.134 526.805 L 337.922 527.908 L 338.45 525.829 L 335.401 524.305 L 337.558 523.972 L 334.284 523.769 L 334.743 520.669 Z M 312.544 518.637 L 314.074 520.817 L 311.14 526.026 L 307.09 525.363 L 304.674 527.056 L 302.181 523.868 L 300.636 524.407 L 300.028 521.158 L 302.081 520.442 L 302.134 518.942 L 304.609 520.914 L 309.31 518.391 Z M 200.763 518.205 L 200.447 519.916 L 202.034 519.985 L 199.098 523.011 L 198.195 519.667 Z M 370.289 517.904 L 369.173 518.781 L 369.987 520.61 L 368.397 519.805 L 367.57 520.955 L 367.7 518.852 Z M 304.243 515.684 L 303.671 517.153 L 300.457 516.732 L 301.827 515.202 Z M 335.143 512.492 L 337.099 513.554 L 335.227 514.567 L 336.734 516.209 L 335.085 516.223 L 339.332 517.253 L 338.802 519.584 L 334.579 520.314 L 333.446 518.767 L 335.132 517.306 L 332.796 515.494 Z M 362.278 511.663 L 363.865 511.717 L 366.236 516.445 L 364.782 516.705 L 367.778 518.217 L 366.971 519.336 L 361.666 517.473 L 361.448 514.638 L 358.002 513.415 Z M 361.422 509.552 L 362.297 510.454 L 360.687 510.766 Z M 360.786 508.557 L 359.539 510.226 L 359.257 509.004 Z M 354.334 507.887 L 358.76 510.335 L 357.064 510.97 L 357.157 509.522 L 354.341 511.692 L 352.725 509.68 L 352.455 511.305 L 352.385 509.219 Z M 219.211 507.42 L 224.425 509.436 L 224.209 511.231 L 226.379 513.019 L 227.689 511.812 L 231.369 516.362 L 232.076 520.056 L 229.484 520.093 L 230.879 521.052 L 229.533 522.852 L 230.217 524.503 L 227.452 529.432 L 225.915 528.912 L 225.858 526.602 L 225.391 529.415 L 224.209 527.81 L 224.57 529.14 L 223.23 528.431 L 222.941 530.15 L 224.172 529.985 L 223.622 531.268 L 225.099 532.215 L 222.852 533.614 L 221.976 532.799 L 223.161 530.492 L 220.608 529.761 L 220.801 532.017 L 214.564 532.875 L 215.692 534.083 L 213.008 535.103 L 209.796 533.372 L 207.598 534.202 L 208.962 531.434 L 206.116 531.646 L 203.783 527.755 L 204.433 525.22 L 206.441 523.704 L 207.618 524.495 L 206.316 522.508 L 211.692 519.609 L 213.437 516.126 L 213.226 518.253 L 214.812 518.302 L 214.157 516.672 L 216.567 515.903 L 215.448 514.714 L 216.783 512.994 L 219.609 513.536 L 219.62 510.888 L 218.121 510.139 Z M 361.369 506.747 L 362.552 508.215 L 361.601 509.178 L 359.478 507.035 Z M 350.793 506.53 L 351.223 507.492 L 349.303 507.407 Z M 192.771 506.079 L 193.785 505.735 L 192.269 508.796 L 192.519 506.802 L 190.919 506.724 Z M 301.671 506.342 L 299.657 505.641 L 300.437 504.703 Z M 359.712 504.826 L 360.799 505.209 L 358.771 505.737 Z M 343.488 503.943 L 345.546 505.498 L 343.94 506.803 L 341.252 504.598 Z M 352.225 503.337 L 353.968 505.194 L 351.674 505.127 Z M 206.612 502.871 L 207.255 503.95 L 205.645 503.964 Z M 343.351 502.387 L 344.117 502.976 L 342.246 503.216 Z M 181.303 502.657 L 181.825 505.687 L 177.009 506.639 L 178.382 505.059 L 176.223 503.405 L 177.938 504.459 Z M 194.854 502.606 L 196.081 504.899 L 194.46 505.77 Z M 201.703 502.049 L 205.832 507.435 L 204.108 509.713 L 204.964 511.405 L 198.164 514.25 L 197.808 512.795 L 199.649 513.288 L 200.929 511.515 L 197.76 512.139 L 197.952 510.511 L 201.357 510.677 L 202.854 508.703 L 201.42 505.129 L 199.54 505.095 L 199.861 502.797 Z M 191.87 501.238 L 192.978 503.96 L 189.969 502.166 Z M 145.174 499.727 L 143.896 501.77 L 142.86 501.223 Z M 199.817 499.24 L 198.687 504.853 L 201.406 508.153 L 200.519 509.892 L 197.007 510.416 L 196.241 507.411 L 197.669 506.99 L 196.181 506.598 L 196.078 502.51 L 197.953 502.002 L 199.692 498.061 Z M 209.287 497.536 L 212.831 498.885 L 212.905 501.639 L 214.581 502.095 L 207.551 504.657 L 205.513 500.731 L 206.409 498.657 Z M 203.157 496.317 L 203.361 499.363 L 201.839 501.099 L 201.135 496.837 Z M 137.087 494.801 L 134.518 498.517 L 133.843 497.244 Z M 213.913 493.813 L 214.457 495.625 L 212.882 497.527 L 210.015 496.278 Z M 141.592 494.448 L 140.433 496.116 L 142.794 494.868 L 143.85 495.979 L 137.817 503.503 L 136.286 499.292 L 138.234 495.013 Z M 360.769 491.944 L 361.852 494.584 L 360.225 493.862 Z M 119.475 493.148 L 119.111 496.067 L 116.518 498.639 L 115.768 497.38 Z M 362.994 490.551 L 366.71 492.636 L 365.661 496.669 L 368.551 499.061 L 366.778 505.317 L 368.679 506.563 L 367.974 507.756 L 363.07 507.009 L 359.305 503.592 L 360.443 499.845 L 364.357 495.939 L 361.826 490.97 Z M 192.108 491.006 L 194.943 493.828 L 195.069 490.809 L 196.581 494.375 L 191.812 499.601 L 190.692 497.786 L 187.587 497.955 L 186.901 494.079 L 189.975 492.814 L 191.371 490.115 Z M 142.866 489.447 L 145.191 490.529 L 143.53 491.38 L 143.641 493.216 L 142.234 491.619 L 143.626 490.835 Z M 196.964 486.747 L 198.012 491.96 L 196.304 490.525 Z M 201.032 487.961 L 200.863 489.896 L 198.848 488.003 L 200.63 486.158 Z M 202.931 485.279 L 206.772 485.464 L 208.414 487.675 L 211.944 488.231 L 213.722 490.775 L 213.388 493.149 L 206.65 496.515 L 204.13 493.677 L 201.584 493.68 L 202.879 488.644 L 201.195 486.476 L 203.465 486.727 Z M 229.679 485.331 L 231.193 486.262 L 229.693 489.27 L 228.618 488.64 L 230.168 487.052 Z M 226.405 484.329 L 225.011 487.379 L 224.745 484.894 Z M 335.839 482.675 L 336.248 484.339 L 333.341 485.266 Z M 194.849 482.263 L 195.148 487.246 L 191.558 489.037 L 189.523 488.348 L 189.602 491.993 L 186.46 492.685 L 184.195 490.945 L 185.42 485.018 L 189.025 485.585 Z M 226.695 480.982 L 227.479 482.994 L 225.33 483.719 Z M 211.48 482.434 L 211.42 487.744 L 202.942 484.14 L 207.883 482.852 L 210.315 479.977 Z M 351.942 477.106 L 350.053 476.017 L 351.958 474.512 L 353.239 476.1 Z M 350.654 473.091 L 351.794 473.998 L 349.818 473.661 Z M 206.143 473.089 L 208.957 473.346 L 210.288 475.563 L 208.122 475.53 L 209.703 477.775 L 208.91 479.999 L 206.724 478.805 L 206.561 482.78 L 204.151 483.261 L 200.732 477.019 L 203.52 475.686 L 206.197 476.886 Z M 359.991 471.217 L 362.661 472.126 L 362.77 474.314 L 358.083 474.312 L 357.52 472.874 Z M 212.332 470.785 L 213.35 471.729 L 212.01 473.404 Z M 223.59 468.543 L 228.891 471.301 L 228.691 472.621 L 226.469 472.092 L 226.801 473.534 L 225.187 473.576 L 225.951 475.538 L 230.442 476.084 L 230.971 478.946 L 229.371 481.163 L 226.566 480.292 L 228.325 478.67 L 226.678 476.84 L 221.686 476.3 L 220.346 478.182 L 216.883 477.267 L 217.461 475.254 L 220.071 476.166 L 220.995 474.286 L 221.951 475.399 L 222.128 472.604 L 224.326 472.609 L 222.068 469.956 Z M 217.197 466.706 L 219.505 467.191 L 219.637 469.566 L 216.54 469.328 Z M 201.148 466.938 L 203.954 468.398 L 203.215 469.651 L 205.124 470.994 L 203.33 475.374 L 199.323 477.807 L 197.006 475.11 L 192.634 475.279 L 192.046 473.779 L 194.108 473.789 L 196.441 469.527 L 200.183 469.627 Z M 361.876 465.599 L 361.957 467.359 L 364.583 467.378 L 366.465 469.298 L 366.418 472.71 L 364.277 472.076 L 363.997 470.41 L 358.73 469.649 L 358.61 467.481 Z M 218.339 464.655 L 218.919 465.603 L 217.66 465.791 Z M 364.077 464.034 L 364.918 467.171 L 362.791 467.229 L 362.234 465.109 Z M 221.391 462.914 L 223.769 467.4 L 219.975 464.506 Z M 215.746 461.009 L 217.134 461.197 L 216.902 463.493 L 213.821 469.381 L 213.176 465.722 Z M 219.086 458.615 L 220.508 459.044 L 221.115 462.204 L 218.592 462.296 Z M 207.965 456.211 L 210.996 456.741 L 213.148 460.988 L 211.894 465.733 L 210.297 466.678 L 207.037 465.732 L 208.035 459.386 L 204.457 459.429 Z M 209.239 452.562 L 214.371 454.742 L 213.504 458.544 L 212.651 456.213 L 207.225 453.88 Z M 208.18 448.513 L 209.244 449.594 L 207.595 449.672 Z M 197.26 447.723 L 198.551 448.413 L 197.715 450.519 L 196.089 448.647 Z M 210.679 442.562 L 207.425 445.77 L 205.563 453.654 L 202.406 453.127 L 202.266 451.524 L 201.225 452.939 L 198.657 451.768 L 199.774 447.383 L 203.273 446.312 L 206.007 442.54 Z M 210.151 434.597 L 206.796 437.189 L 207.076 435.663 Z M 208.691 424.151 L 209.192 427.658 L 207.702 425.937 Z M 195 420.262 L 196.137 420.85 L 194.378 421.994 Z M 197.132 416.61 L 199.111 418.727 L 196.489 420.468 L 195.894 418.549 L 197.372 418.639 L 194.731 417.497 Z M 274.466 402.273 L 275.989 402.976 L 275.835 405.179 L 281.208 406.752 L 281.83 409.965 L 284.936 413.079 L 288.877 412.404 L 288.174 409.487 L 290.564 407.727 L 291.131 405.166 L 294.446 404.661 L 294.676 408.454 L 296.206 409.266 L 295.66 412.088 L 293.741 413.014 L 297.869 416.406 L 297.877 419.51 L 296.149 419.457 L 295.289 421.624 L 301.256 424.279 L 305.079 423.116 L 308.561 419.713 L 310.41 422.326 L 311.835 422.234 L 312.678 419.879 L 316.043 422.802 L 320.742 423.814 L 325.335 421.684 L 328.029 423.797 L 332.528 417.177 L 336.409 416.342 L 345.661 422.031 L 350.156 430.028 L 350.791 437.344 L 357.74 443.952 L 357.8 447.321 L 361.915 450.246 L 362.369 452.336 L 364.538 452.761 L 366.703 457.496 L 364.123 463.395 L 361.914 464.646 L 361.087 463.718 L 357.985 468.984 L 357.145 468.277 L 357.671 469.118 L 352.563 472.716 L 348.724 466.621 L 346.689 468.912 L 350.088 472.01 L 347.732 474.057 L 349.444 476.871 L 352.211 477.359 L 351.282 479.329 L 352.514 480.498 L 352.439 479.169 L 354.635 477.604 L 355.452 478.478 L 357.848 475.22 L 361.773 475.322 L 362.47 476.854 L 365.436 475.705 L 365.021 482.363 L 362.657 485.481 L 362.953 488.983 L 364.969 489.249 L 361.736 491.878 L 358.72 492.149 L 354.255 488.014 L 352.117 492.314 L 352.846 493.718 L 351.139 492.37 L 350.04 493.732 L 352.507 496.42 L 350.397 496.48 L 353.152 502.81 L 347.695 500.116 L 346.3 500.599 L 346.891 502.605 L 343.943 496.568 L 344.818 494.443 L 346.913 495.217 L 343.744 493.048 L 347.041 489.181 L 349.088 489.433 L 344.742 485.49 L 346.109 484.808 L 344.616 482.019 L 341.318 481.667 L 343.285 477.881 L 342.219 478.618 L 341.259 476.971 L 340.861 473.381 L 338.244 473.838 L 337.651 478.135 L 332.81 478.155 L 329.607 479.888 L 325.063 478.25 L 328.748 481.108 L 332.214 481.226 L 328.378 485.256 L 326.599 485.302 L 329.642 486.599 L 326.958 489.65 L 329.178 493.658 L 334.65 494.934 L 333.708 496.569 L 329.727 494.162 L 332.208 497.492 L 334.036 497.489 L 333.895 498.898 L 336.975 497.774 L 336.191 498.95 L 338.362 501.099 L 335.359 501.377 L 338.875 502.437 L 339.932 507.022 L 337.949 509.233 L 335.094 507.144 L 333.81 508.89 L 332.736 507.52 L 329.092 507.682 L 329.935 509.76 L 332.372 510.166 L 329.194 510.862 L 333.194 512.15 L 331.66 514.27 L 332.481 516.284 L 330.805 515.329 L 329.906 517.242 L 327.417 517.337 L 328.706 519.154 L 327.841 520.307 L 323.813 519.053 L 322.346 520.558 L 323.473 521.645 L 321.461 522.024 L 323.706 523.104 L 322.582 524.651 L 316.812 519.897 L 318.289 518.109 L 315.642 515.435 L 313.245 515.742 L 312.306 513.792 L 311.451 515.905 L 309.784 514.047 L 307.666 515.481 L 304.265 515.143 L 301.882 512.357 L 305.377 506.086 L 307.525 506.809 L 307.676 503.012 L 309.967 500.126 L 310.131 506.553 L 312.837 507.956 L 310.505 506.512 L 311.052 502.81 L 312.643 501.979 L 315.25 493.102 L 318.091 492.316 L 317.951 497.651 L 321.336 498.558 L 324.148 493.389 L 322.511 488.475 L 320.264 488.708 L 319.228 490.92 L 317.235 489.64 L 316.275 490.786 L 313.922 487.584 L 314.207 485.724 L 308.833 495.187 L 304.946 495.358 L 303.461 493.832 L 295.599 502.113 L 287.655 503.114 L 290.521 503.385 L 292.016 505.273 L 289.141 509.194 L 291.58 509.683 L 291.549 511.32 L 290.065 510.611 L 290.076 513.123 L 287.12 514.218 L 289.039 516.489 L 287.391 517.864 L 289.061 521.217 L 288.066 520.343 L 286.998 521.489 L 285.536 519.792 L 285.227 523.968 L 278.947 522.933 L 280.091 526.918 L 276.263 523.488 L 272.574 523.588 L 272.767 521.537 L 270.487 521.406 L 271.634 520.102 L 270.176 502.333 L 268.637 510.471 L 269.363 514.867 L 267.993 514.787 L 268.675 518.015 L 266.024 519.449 L 267.47 521.132 L 264.743 524.637 L 259.899 526.255 L 260.183 527.586 L 258.78 526.425 L 254.378 529.219 L 253.299 539.373 L 248.805 538.55 L 245.427 542.005 L 244.295 538.872 L 245.715 537.129 L 245.038 534.023 L 243.39 533.553 L 240.605 535.522 L 239.833 534.372 L 241.868 533.592 L 240.355 531.28 L 242.818 531.101 L 241.873 528.484 L 244.739 527.794 L 243.938 524.873 L 241.449 526.509 L 238.73 523.797 L 240.906 523.619 L 238.826 520.444 L 238.894 517.662 L 240.384 517.009 L 237.366 515.035 L 239.3 514.087 L 236.81 513.84 L 235.872 511.365 L 232.205 514.065 L 231.925 510.628 L 225.259 510.056 L 225.139 507.596 L 223.499 506.096 L 222.008 506.711 L 222.057 504.792 L 219.991 504.755 L 221.963 504.73 L 223.288 502.728 L 220.049 501.354 L 219.6 496.869 L 223.803 487.189 L 227.118 489.736 L 226.925 492.025 L 228.701 493.444 L 227.556 496.271 L 230.698 501.854 L 230.659 505.62 L 231.657 504.102 L 238.501 508.254 L 239.78 506.798 L 236.996 506.385 L 234.05 503.19 L 235.39 499.635 L 233.633 502.942 L 231.025 501.07 L 229.802 498.208 L 232.403 495.352 L 231.446 493.458 L 230.033 496.922 L 228.136 496.089 L 232.03 492.149 L 232.469 490.872 L 229.944 489.415 L 231.539 486.678 L 238.248 484.778 L 237.509 482.88 L 231.842 485.213 L 229.49 483.451 L 232.384 478.498 L 234.722 477.825 L 233.676 473.438 L 232.219 473.708 L 233.967 469.919 L 232.517 467.908 L 232.908 463.633 L 230.849 459.497 L 229.662 463.098 L 231.151 464.408 L 230.8 468.295 L 228.15 469.495 L 226.459 467.549 L 224.554 467.876 L 225.969 466.003 L 223.429 463.486 L 225.256 460.75 L 224.89 462.229 L 225.804 461.605 L 226.618 463.265 L 228.54 462.247 L 229.56 460.26 L 227.077 460.129 L 232.447 456.542 L 232.387 455.138 L 231.647 453.727 L 228.878 454.856 L 228.646 452.824 L 226.909 452.206 L 228.101 450.919 L 226.052 448.992 L 224.354 454.132 L 223.439 454.589 L 222.253 452.155 L 220.099 453.167 L 221.441 455.432 L 219.696 457.919 L 218.442 456.178 L 217.105 457.352 L 217.469 453.187 L 214.762 452.737 L 214.851 454.78 L 214.559 452.182 L 210.608 451.586 L 210.326 447.823 L 213.414 446.181 L 219.153 448.024 L 218.141 446.794 L 220.218 442.371 L 221.456 441.711 L 222.002 443.481 L 225.684 444 L 228.336 440.665 L 227.041 448.471 L 229.041 447.724 L 228.233 450.352 L 230.142 450.056 L 230.698 452.139 L 231.654 449.753 L 233.313 449.606 L 232.052 451.596 L 233.381 450.424 L 234.27 452.369 L 232.664 454.339 L 233.75 456.241 L 236.108 456.185 L 235.242 454.492 L 239.031 450.685 L 236.966 449.28 L 239.736 447.712 L 235.511 446.918 L 227.741 437.551 L 231.319 434.597 L 225.613 438.258 L 223.756 437.337 L 225.244 434.816 L 223.691 434.06 L 224.326 430.64 L 224.998 429.521 L 227.139 430.389 L 226.175 425.592 L 231.075 424.003 L 233.235 416.077 L 238.474 417.773 L 233.723 413.6 L 234.948 409.834 L 235.771 408.807 L 241.081 409.567 L 242.443 411.34 L 240.958 414.043 L 242.873 415.549 L 242.52 418.235 L 244.357 416.889 L 245.475 422.586 L 251.576 424.231 L 251.33 420.635 L 253.129 419.964 L 257.022 421.843 L 259.135 418.122 L 260.951 418.947 L 264.473 416.326 L 264.452 412.421 L 267.55 410.359 L 266.092 406.454 L 269.287 404.36 L 273.211 404.32 Z M 282.215 429.02 L 272.44 433.785 L 267.656 431.904 L 268.203 429.075 L 265.903 429.723 L 264.033 434.541 L 261.103 434.129 L 260.171 436.99 L 257.829 436.829 L 259.645 439.197 L 257.179 442.344 L 258.028 445.92 L 259.494 447.111 L 265.393 446.065 L 269.102 450.871 L 267.402 451.84 L 269.671 453.177 L 271.464 452.24 L 273.752 453.252 L 277.276 450.247 L 283.258 448.677 L 286.507 450.846 L 290.004 448.265 L 293.254 439.301 L 291.09 437.306 L 288.121 438.178 L 286.121 432.328 Z M 235.903 489.494 L 233.347 489.906 L 232.405 492.178 L 235.982 494.193 L 238.589 493.761 L 240.384 499.263 L 245.592 502.137 L 241.162 499.018 L 241.141 496.848 L 243.719 499.172 L 254.755 502.922 L 246.812 498.563 L 249.339 496.693 L 246.865 496.579 L 243.833 490.736 L 241.822 489.827 L 238.97 491.242 L 238.267 490.138 L 236.06 491.54 L 238.327 489.616 Z" /><path id="path-4" d="M 224.359 386.197 L 225.483 387.509 L 224.329 389.269 L 220.802 392.704 L 219.62 391.963 L 219.133 390.11 L 221.212 389.862 L 219.871 388.964 L 222.554 387.984 L 221.609 386.724 L 222.825 387.76 L 223.448 386.594 L 223.439 388.262 Z M 222.867 384.74 L 222.562 386.157 L 222.521 384.88 L 221.443 385.627 Z M 206.696 383.425 L 207.098 384.858 L 205.841 384.161 Z M 238.214 371.315 L 239.539 372.862 L 238.67 373.702 Z M 225.876 368.41 L 228.524 369.08 L 228.284 371.038 L 227.357 369.373 L 225.997 370.62 Z M 237.13 363.926 L 236.865 365.473 L 234.916 365.548 Z M 237.726 361.393 L 241.942 363.318 L 239.463 362.939 L 238.27 364.407 Z M 233.974 361.405 L 236.018 363.033 L 233.742 364.698 Z M 234.26 358.163 L 236.688 358.572 L 233.02 358.732 Z M 248.615 336.183 L 248.539 337.987 L 246.876 337.221 Z M 237.258 331.284 L 237.89 332.608 L 236.309 331.746 Z M 290.144 324.274 L 292.631 323.806 L 293.678 325.284 L 295.308 324.03 L 297.018 330.395 L 302.925 333.99 L 304.292 331.178 L 307.369 331.533 L 308.555 330.261 L 310.256 331.283 L 310.798 329.564 L 315.51 331.561 L 315.297 328.066 L 317.516 328.699 L 323.617 325.998 L 327.398 338.786 L 329.63 340.556 L 332.832 337.981 L 334.898 343.412 L 337.936 344.094 L 342.561 342.093 L 342.158 336.605 L 347.853 338.527 L 350.117 341.321 L 349.691 338.538 L 352.37 337.59 L 350.527 336.548 L 351.149 333.548 L 353.009 333.592 L 355.004 337.13 L 357.265 334.057 L 358.521 337.314 L 364.186 338.47 L 364.533 340.054 L 372.663 336.779 L 375.308 338.829 L 375.196 341.884 L 378.619 347.482 L 375.842 349.937 L 376.333 351.616 L 373.698 352.589 L 372.099 357.013 L 369.162 358.926 L 363.929 360.853 L 362.587 359.943 L 360.174 365.535 L 354.873 369.094 L 354.596 375.828 L 350.666 383.367 L 352.127 386.65 L 349.965 387.808 L 347.321 394.188 L 351.477 396.418 L 353.78 402.316 L 352.253 403.171 L 352.27 405.426 L 355.719 407.303 L 349.716 416.383 L 350.911 419.664 L 348.065 422.781 L 346.555 423.13 L 336.409 416.342 L 332.528 417.177 L 328.029 423.797 L 325.335 421.684 L 320.742 423.814 L 316.043 422.802 L 312.678 419.879 L 311.835 422.234 L 310.41 422.326 L 308.561 419.713 L 305.079 423.116 L 301.256 424.279 L 295.289 421.624 L 296.149 419.457 L 297.877 419.51 L 297.869 416.406 L 293.741 413.014 L 295.66 412.088 L 296.206 409.266 L 294.676 408.454 L 294.446 404.661 L 291.131 405.166 L 290.564 407.727 L 288.174 409.487 L 288.877 412.404 L 284.936 413.079 L 281.83 409.965 L 281.208 406.752 L 275.835 405.179 L 275.989 402.976 L 274.435 402.252 L 273.211 404.32 L 269.287 404.36 L 266.092 406.454 L 267.55 410.359 L 264.452 412.421 L 264.473 416.326 L 260.951 418.947 L 259.135 418.122 L 257.022 421.843 L 253.129 419.964 L 251.33 420.635 L 251.565 424.231 L 249.685 422.861 L 245.98 423.173 L 244.357 416.889 L 242.52 418.235 L 242.873 415.549 L 240.958 414.043 L 242.168 410.92 L 236.304 408.541 L 241.608 397.95 L 242.802 399.452 L 244.982 396.678 L 247.411 397.405 L 249.555 395.549 L 252.153 396.487 L 255.968 391.788 L 259.149 394.246 L 259.847 392.587 L 259.851 390.455 L 256.251 388.842 L 254.377 390.612 L 252.555 389.511 L 243.958 391.292 L 239.827 389.003 L 240.09 385.158 L 238.909 384.51 L 246.29 378.112 L 249.876 377.62 L 252.192 375.549 L 255.312 371.297 L 255.837 365.149 L 265.046 365.891 L 269.744 370.205 L 269.701 365.022 L 260.919 359.965 L 265.286 357.305 L 270.885 357.45 L 272.017 354.09 L 275.589 352.102 L 271.075 352.778 L 269.044 354.658 L 254.079 355.023 L 254.158 348.294 L 246.802 348.358 L 245.987 350.058 L 245.16 344.931 L 260.19 343.458 L 260.416 341.58 L 265.106 341.968 L 266.999 338.695 L 272.891 337.461 L 278.275 334.087 L 280.791 324.779 L 283.775 324.947 L 286.991 322.915 Z" /><path id="path-5" d="M 229.444 299.271 L 230.67 301.809 L 227.811 302.5 Z M 236.679 295.57 L 239.195 299.328 L 231.896 297.806 L 232.162 296.195 Z M 227.865 293.323 L 229.345 293.964 L 227.23 296.601 L 226.095 295.17 Z M 229.75 268.488 L 233.137 270.561 L 232.207 274.948 L 236.148 286.497 L 236.214 294.027 L 233.174 291.721 L 229.768 292.063 L 228.393 289.641 L 230.035 289.053 L 226.979 289.437 L 227.164 282.393 L 224.92 271.803 Z M 212.496 262.332 L 212.346 264.74 L 209.328 265.418 Z M 226.483 232.219 L 228.511 233.482 L 227.856 234.56 Z M 231.377 230.587 L 232.643 231.319 L 230.991 232.06 Z M 236.228 214.279 L 238.298 216.826 L 235.538 217.1 Z M 318.946 234.831 L 320.992 236.457 L 320.632 238.923 L 323.406 239.533 L 323.182 242.47 L 329.614 246.182 L 329.083 248.184 L 331.514 250.926 L 329.854 252.643 L 326.588 250.702 L 323.353 251.761 L 323.695 254.439 L 320.846 255.329 L 318.543 259.143 L 320.637 260.691 L 317.683 265.421 L 319.184 265.746 L 320.026 272.152 L 322.07 272.116 L 325.588 275.953 L 325.806 283.044 L 323.826 290.218 L 318.224 292.173 L 317.798 300.039 L 315.073 307.796 L 319.105 309.957 L 318.173 313.477 L 321.314 315.061 L 323.184 319.725 L 326.132 315.354 L 326.038 309.427 L 328.473 309.969 L 328.363 313.629 L 333.575 318.416 L 338.429 313.196 L 342.58 311.59 L 343.593 314.138 L 346.72 313.795 L 348.509 315.657 L 347.782 325.593 L 352.344 333.375 L 350.67 334.065 L 350.548 336.601 L 352.37 337.59 L 349.691 338.538 L 350.106 341.342 L 347.853 338.527 L 342.158 336.605 L 342.561 342.093 L 337.936 344.094 L 334.898 343.412 L 332.832 337.981 L 329.63 340.556 L 327.398 338.786 L 323.617 325.998 L 317.516 328.699 L 315.297 328.066 L 315.51 331.561 L 310.798 329.564 L 310.256 331.283 L 308.555 330.261 L 307.369 331.533 L 304.292 331.178 L 302.925 333.99 L 297.018 330.395 L 295.308 324.03 L 293.393 325.273 L 292.631 323.806 L 286.991 322.915 L 280.252 325.365 L 278.033 334.3 L 272.891 337.461 L 266.999 338.695 L 265.664 341.394 L 259.04 340.948 L 259.145 337.616 L 255.543 335.071 L 255.67 332.352 L 254.497 332.336 L 256.995 330.362 L 253.832 330.087 L 249.907 324.792 L 248.474 326.233 L 244.864 323.445 L 243.396 326.162 L 242.599 325.359 L 242.616 322.648 L 245.014 321.828 L 246.109 318.367 L 249.521 319.053 L 246.795 317.885 L 245.608 315.445 L 247.582 309.53 L 243.181 302.897 L 249.021 299.683 L 241.149 295.8 L 242.842 290.684 L 240.573 281.583 L 242.062 279.856 L 239.369 277.383 L 237.54 270.031 L 241.047 269.028 L 238.98 266.88 L 239.505 259.924 L 238.434 258.828 L 237.759 265.625 L 235.146 270.153 L 230.122 266.817 L 228.352 255.531 L 227.82 261.87 L 229.698 267.055 L 223.176 271.965 L 222.29 267.407 L 223.484 264.736 L 220.13 259.23 L 221.171 254.566 L 218.492 256.867 L 217.792 255.995 L 218.339 257.746 L 214.073 261.12 L 207.72 261.882 L 207.064 260.101 L 209.491 259.758 L 209.131 257.674 L 211.045 255.988 L 214.904 257.346 L 216.392 255.514 L 214.463 255.562 L 215.403 253.231 L 210.95 251.17 L 208.715 251.64 L 209.742 254.415 L 206.91 257.234 L 207.866 252.151 L 204.875 249.287 L 208.04 248.947 L 207.612 247.601 L 209.309 246.546 L 209.437 240.488 L 211.981 240.862 L 211.661 244.607 L 212.886 244.317 L 211.957 241.785 L 213.839 239.635 L 212.109 235.896 L 214.61 233.471 L 219.441 232.294 L 218.344 235.468 L 216.088 236.473 L 218.378 238.418 L 219.389 236.554 L 221.207 236.915 L 223.265 230.59 L 222.287 225.637 L 224.364 224.547 L 224.151 231.882 L 227.059 235.123 L 223.589 239.793 L 225.484 242.02 L 222.279 243.137 L 222.772 246.199 L 224.465 244.279 L 227.527 244.128 L 225.381 241.056 L 226.933 238.525 L 228.504 238.728 L 227.981 240.33 L 230.195 242.545 L 230.083 236.808 L 236.528 233.967 L 234.31 233.026 L 234.548 229.933 L 232.21 230.506 L 230.979 228.517 L 229.638 229.503 L 228.7 226.75 L 227.194 226.911 L 226.393 222.577 L 227.802 220.601 L 228.719 221.626 L 229.448 220.343 L 234.287 220.633 L 234.053 219.248 L 238.561 221.456 L 241.853 228.817 L 240.895 233.448 L 241.838 224.145 L 238.664 218.995 L 242.963 214.23 L 254.535 221.528 L 261.865 222.049 L 262.621 224.12 L 263.515 222.785 L 270.249 224.991 L 274.979 238.655 L 276.453 238.556 L 277.004 236.185 L 282.665 235.233 L 282.364 233.495 L 290.687 229.82 L 294.172 230.679 L 299.39 228.342 L 300.64 229.331 L 301.852 225.338 L 310.499 227.832 L 311.349 230.432 L 317.382 232.412 Z" /><path id="path-6" d="M 352.344 333.375 L 347.782 325.593 L 348.509 315.657 L 346.72 313.795 L 343.593 314.138 L 342.58 311.59 L 338.429 313.196 L 338.765 305.47 L 338.924 305.375 L 338.975 303.671 L 338.881 303.511 L 341.49 295.448 L 344.618 294.239 L 343.38 291.556 L 340.621 291.253 L 340.089 293.542 L 338.089 290.013 L 339.377 287.47 L 337.138 287.01 L 337.595 284.644 L 334.626 287.937 L 329.944 287.329 L 329.345 283.229 L 327.862 281.921 L 325.806 283.044 L 325.588 275.953 L 322.07 272.116 L 320.026 272.152 L 319.184 265.746 L 317.683 265.421 L 320.637 260.691 L 318.543 259.143 L 320.846 255.329 L 323.695 254.439 L 323.353 251.761 L 326.588 250.702 L 329.854 252.643 L 331.514 250.926 L 329.083 248.184 L 329.614 246.182 L 323.182 242.47 L 323.406 239.533 L 320.632 238.923 L 320.992 236.457 L 318.946 234.831 L 320.311 232.27 L 319.504 230.615 L 329.333 226.356 L 328.803 222.497 L 334 220.758 L 336.047 215.705 L 339.566 216.304 L 340.632 215.073 L 344.658 216.945 L 346.436 213.181 L 349.12 213.832 L 348.801 211.787 L 352.059 209.807 L 351.478 203.572 L 357.144 205.807 L 362.794 195.986 L 363.684 201.357 L 366.906 204.699 L 374.709 202.292 L 377.459 204.018 L 380.737 200.895 L 379.672 194.691 L 385.107 190.952 L 388.943 192.652 L 390.909 199.354 L 397.204 197.54 L 399.275 193.793 L 402.87 196.401 L 406.432 192.114 L 409.072 194.648 L 411.231 194.482 L 412.882 197.026 L 417.498 195.182 L 419.117 196.077 L 418.464 198.309 L 412.527 202.761 L 415.571 205.956 L 419.459 203.072 L 421.621 204.028 L 423.983 202.997 L 427.892 209.759 L 434.164 207.295 L 436.301 208.394 L 436.267 210.513 L 437.245 209.636 L 445.321 212.867 L 446.938 211.593 L 449.72 214.201 L 447.643 217.39 L 445.562 215.742 L 441.651 217.923 L 440.392 222.276 L 436.498 223.652 L 429.536 230.738 L 427.798 236.935 L 430.137 238.343 L 430.214 240.318 L 427.491 244.715 L 423.985 244.331 L 421.923 246.016 L 417.5 244.089 L 414.256 239.274 L 410.341 237.345 L 409.844 240.309 L 407.636 240.088 L 407.943 244.519 L 400.161 241.99 L 395.936 246.507 L 392.794 244.082 L 390.219 252.314 L 393.972 257.194 L 388.469 254.458 L 385.555 255.873 L 383.403 253.624 L 380.172 259.287 L 375.683 259.576 L 375.525 260.645 L 378.158 260.434 L 380.623 262.234 L 379.819 269.476 L 376.504 266.505 L 375.576 263.138 L 372.377 266.104 L 373.591 268.445 L 367.626 270.168 L 370.205 273.514 L 374.432 274.416 L 374.989 277.455 L 377.701 278.612 L 378.167 281.04 L 375.091 282.677 L 375.852 291.316 L 373.91 294.796 L 376.687 298.743 L 371.894 304.58 L 372.8 308.826 L 375.957 309.025 L 378.003 305.541 L 378.197 307.48 L 383.298 311.489 L 389.632 309.649 L 391.727 310.928 L 390 312.931 L 393.178 317.826 L 390.8 318.439 L 388.415 316.648 L 385.257 317.945 L 386.846 323.096 L 383.903 327.423 L 383.411 333.376 L 380.96 335.475 L 379.157 335.033 L 375.308 338.829 L 372.663 336.779 L 364.533 340.054 L 364.186 338.47 L 358.521 337.314 L 357.223 334.035 L 354.519 336.978 Z" /><path id="path-7" d="M 362.871 192.926 L 362.871 192.926 L 363.692 189.591 L 363.692 189.591 L 363.63 189.277 L 363.63 189.256 L 363.914 185.915 L 363.946 185.915 L 364.889 184.92 L 364.878 184.887 L 364.288 183.437 L 364.289 183.426 L 364.061 182.334 L 364.05 182.313 L 364.032 177.887 L 364.032 177.877 L 365.444 177.445 L 365.552 177.392 L 367.321 171.446 L 367.322 171.435 L 368.259 169.984 L 368.259 169.973 L 368.07 169.367 L 368.071 169.356 L 367.889 167.928 L 367.889 167.928 L 367.837 167.679 L 367.837 167.679 L 367.724 167.073 L 367.702 167.062 L 367.278 165.004 L 367.278 165.004 L 364.465 162.732 L 364.465 162.743 L 364.048 162.447 L 364.048 162.426 L 364.041 161.971 L 364.041 161.971 L 364.077 161.453 L 364.077 161.442 L 366.751 159.831 L 366.806 159.68 L 372.67 155.641 L 372.67 155.641 L 367.574 151.559 L 363.485 150.615 L 363.474 150.626 L 362.944 150.838 L 362.912 150.838 L 360.776 150.908 L 360.637 150.853 L 358.356 150.186 L 358.345 150.153 L 355.741 147.936 L 355.676 147.924 L 354.896 146.847 L 354.896 146.847 L 352.423 145.627 L 352.413 145.605 L 350.608 144.445 L 350.586 144.444 L 348.942 143.448 L 344.782 146.217 L 342.496 144.048 L 343.819 141.097 L 343.83 141.075 L 344.91 135.509 L 344.932 135.476 L 345.107 134.989 L 345.087 134.837 L 344.819 134.412 L 344.831 134.163 L 343.466 134.947 L 343.194 135.173 L 342.72 135.105 L 342.343 134.854 L 341.558 134.285 L 341.46 134.35 L 341.047 134.76 L 341.004 134.814 L 339.815 135.002 L 339.815 135.002 L 340.268 133.085 L 340.311 133.042 L 340.583 132.826 L 340.713 132.729 L 341.277 132.363 L 341.287 132.353 L 341.418 132.277 L 341.472 132.234 L 342.535 131.481 L 342.578 131.438 L 343.144 130.855 L 343.176 130.812 L 343.396 130.173 L 343.396 130.151 L 343.302 129.608 L 343.281 129.542 L 343.014 128.955 L 342.993 128.922 L 342.843 128.682 L 342.811 128.628 L 342.575 128.29 L 342.521 128.214 L 342.285 127.93 L 342.253 127.887 L 341.909 127.429 L 341.856 127.374 L 341.662 127.178 L 341.63 127.134 L 341.181 126.285 L 341.191 126.274 L 341.247 126.046 L 341.268 126.014 L 341.705 125.343 L 341.705 125.332 L 341.923 124.91 L 341.945 124.878 L 342.62 124.176 L 342.631 124.143 L 342.642 124.121 L 342.653 124.089 L 342.676 123.72 L 342.677 123.666 L 342.549 123.317 L 342.527 123.274 L 341.474 122.04 L 341.474 122.04 L 342.067 120.501 L 342.132 120.425 L 342.774 119.919 L 342.817 119.897 L 343.37 119.737 L 343.413 119.738 L 343.554 119.738 L 343.575 119.738 L 343.619 119.739 L 343.651 119.739 L 343.824 119.729 L 343.846 119.718 L 343.934 119.545 L 343.934 119.545 L 343.934 119.534 L 343.934 119.534 L 343.945 119.447 L 343.945 119.447 L 343.956 119.426 L 343.956 119.415 L 343.956 119.339 L 343.956 119.339 L 343.956 119.317 L 343.967 119.306 L 343.967 119.284 L 343.967 119.284 L 344.001 119.078 L 344.001 119.078 L 344.023 119.067 L 344.023 119.067 L 344.055 119.046 L 344.055 119.046 L 344.143 118.949 L 344.153 118.938 L 344.327 118.83 L 344.327 118.83 L 344.447 118.787 L 344.468 118.798 L 345.162 118.607 L 345.217 118.477 L 345.315 118.358 L 345.326 118.358 L 345.412 118.315 L 345.434 118.294 L 345.512 117.859 L 345.534 117.816 L 345.545 117.794 L 345.556 117.773 L 345.743 117.372 L 345.754 117.35 L 345.863 117.188 L 345.863 117.177 L 345.874 117.155 L 345.874 117.155 L 345.982 117.101 L 345.993 117.102 L 346.059 117.026 L 346.059 117.015 L 346.233 116.81 L 346.244 116.799 L 346.244 116.788 L 346.255 116.766 L 346.798 116.389 L 346.831 116.378 L 346.885 116.357 L 346.907 116.357 L 346.972 116.336 L 347.005 116.325 L 347.493 116.176 L 347.514 116.165 L 347.536 116.166 L 347.558 116.166 L 347.655 116.177 L 347.687 116.188 L 347.969 116.201 L 347.99 116.19 L 348.055 116.191 L 348.077 116.191 L 348.218 116.181 L 348.218 116.181 L 348.79 116.326 L 348.79 116.326 L 348.996 116.338 L 349.007 116.327 L 349.39 115.732 L 349.401 115.71 L 349.467 115.526 L 349.5 115.461 L 349.532 115.407 L 349.532 115.407 L 349.543 115.385 L 349.543 115.363 L 349.471 114.852 L 349.471 114.841 L 349.493 114.743 L 349.493 114.732 L 349.494 114.711 L 349.494 114.7 L 349.484 114.591 L 349.484 114.58 L 349.462 114.526 L 349.462 114.515 L 349.77 113.788 L 349.77 113.788 L 350.175 113.095 L 350.176 113.052 L 350.209 112.921 L 350.209 112.921 L 350.22 112.889 L 350.231 112.878 L 350.407 112.488 L 350.418 112.444 L 350.375 112.335 L 350.375 112.314 L 350.399 111.988 L 350.399 111.977 L 350.358 111.705 L 350.347 111.704 L 350.273 111.421 L 350.273 111.41 L 350.145 111.138 L 350.145 111.127 L 350.145 111.04 L 350.146 111.018 L 350.135 110.953 L 350.135 110.942 L 350.125 110.909 L 350.125 110.898 L 349.931 110.777 L 349.909 110.755 L 349.878 110.472 L 349.889 110.44 L 349.956 110.136 L 349.967 110.114 L 350.152 109.963 L 350.196 109.92 L 350.243 109.333 L 350.222 109.289 L 350.19 109.191 L 350.179 109.158 L 350.159 109.028 L 350.148 108.995 L 350.127 108.93 L 350.095 108.864 L 349.914 108.308 L 349.903 108.297 L 349.839 108.242 L 349.806 108.22 L 349.742 108.166 L 349.731 108.155 L 349.645 108.056 L 349.645 108.034 L 349.267 107.89 L 349.234 107.89 L 349.063 107.617 L 349.063 107.617 L 349.02 107.508 L 349.009 107.486 L 348.988 107.464 L 348.977 107.443 L 348.945 107.41 L 348.956 107.399 L 348.978 107.323 L 348.989 107.301 L 349.035 106.91 L 349.046 106.866 L 348.972 106.529 L 348.961 106.529 L 348.918 106.496 L 348.908 106.474 L 348.821 106.419 L 348.8 106.408 L 348.54 106.395 L 348.529 106.395 L 343.757 105.201 L 343.669 103.612 L 343.594 103.427 L 343.215 101.606 L 343.044 101.181 L 337.734 100.542 L 337.096 100.321 L 334.841 98.0227 L 334.852 97.9683 L 334.735 97.4123 L 334.649 97.3138 L 334.499 96.8447 L 334.499 96.8339 L 334.237 95.0025 L 334.107 94.9365 L 333.901 94.8592 L 333.912 94.8375 L 333.852 93.7259 L 333.852 93.715 L 333.875 93.5625 L 333.886 93.5517 L 333.941 93.3449 L 333.941 93.3449 L 333.964 93.1816 L 333.964 93.1816 L 333.964 93.1707 L 333.964 93.1707 L 333.953 93.1161 L 333.953 93.0943 L 333.986 92.9528 L 333.986 92.9528 L 334.008 92.9093 L 334.008 92.8984 L 334.009 92.8331 L 333.998 92.8112 L 333.988 92.5932 L 333.988 92.5932 L 334.032 92.4409 L 334.032 92.4409 L 334.021 92.4299 L 334.021 92.419 L 334.021 92.4081 L 334.021 92.3972 L 334.011 92.3754 L 334.011 92.3645 L 333.829 91.8514 L 333.829 91.8405 L 333.917 91.6338 L 333.917 91.612 L 333.993 91.5034 L 333.993 91.4925 L 334.026 91.3619 L 334.016 91.3509 L 334.016 91.34 L 334.016 91.3291 L 334.005 91.3073 L 334.005 91.3073 L 333.974 90.9584 L 333.974 90.9475 L 333.974 90.9148 L 333.974 90.9039 L 333.964 90.8275 L 333.964 90.8166 L 333.91 90.6638 L 333.91 90.6529 L 333.813 90.4998 L 333.813 90.4889 L 333.781 90.4125 L 333.781 90.3907 L 333.793 90.2054 L 333.793 90.1945 L 333.816 89.9221 L 333.816 89.8785 L 333.828 89.7586 L 333.817 89.715 L 333.594 88.7219 L 333.561 88.6781 L 333.518 88.6234 L 333.518 88.6125 L 333.498 88.3289 L 333.498 88.318 L 333.498 88.3071 L 333.498 88.2962 L 333.499 88.1327 L 333.488 88.0999 L 333.349 87.7613 L 333.349 87.7613 L 333.208 87.7061 L 333.208 87.7061 L 333.175 87.695 L 333.164 87.695 L 333.013 87.6179 L 333.002 87.6179 L 332.817 87.5843 L 332.817 87.5843 L 332.709 87.4966 L 332.698 87.4856 L 332.418 87.0373 L 332.407 87.0481 L 332.342 87.1241 L 332.32 87.1458 L 332.243 87.2436 L 332.233 87.2545 L 331.818 87.6233 L 331.818 87.6233 L 331.764 87.6667 L 331.764 87.6776 L 331.665 87.8407 L 331.654 87.8406 L 331.534 88.0036 L 331.523 88.0145 L 331.382 88.0902 L 331.36 88.101 L 331.327 88.1227 L 331.316 88.1335 L 331.284 88.1552 L 331.262 88.166 L 331.055 88.3177 L 331.055 88.3286 L 330.847 88.6438 L 330.847 88.6438 L 330.717 88.5996 L 330.685 88.5668 L 330.533 88.4244 L 330.523 88.4243 L 330.414 88.3912 L 330.414 88.3912 L 330.252 88.3032 L 330.241 88.2923 L 330.198 88.2485 L 330.187 88.2266 L 330.133 88.1937 L 330.122 88.1827 L 330.068 88.0626 L 330.057 88.0516 L 330.047 87.9425 L 330.047 87.9207 L 330.004 87.757 L 330.004 87.757 L 329.929 87.6149 L 329.918 87.604 L 329.886 87.582 L 329.886 87.582 L 329.854 87.4183 L 329.854 87.4074 L 329.843 87.3092 L 329.843 87.3092 L 329.778 87.2653 L 329.768 87.2544 L 329.659 87.2321 L 329.648 87.2321 L 329.279 87.2523 L 329.236 87.2521 L 329.105 87.2406 L 329.073 87.2405 L 328.801 87.2176 L 328.791 87.2066 L 328.726 87.1627 L 328.65 87.1406 L 328.367 87.1394 L 328.356 87.1394 L 328.161 87.1385 L 328.15 87.1494 L 327.976 87.1596 L 327.955 87.1486 L 327.869 86.8647 L 327.836 86.8646 L 327.283 86.8296 L 327.25 86.884 L 327.195 86.9383 L 327.184 86.9492 L 327.13 86.9599 L 327.119 86.9598 L 326.814 87.3402 L 326.814 87.373 L 326.813 87.5474 L 326.802 87.5583 L 326.649 87.7212 L 326.595 87.7537 L 326.443 87.8185 L 326.421 87.8403 L 326.345 87.8727 L 326.323 87.8835 L 326.257 88.0032 L 326.257 88.0032 L 325.323 88.1195 L 325.291 88.1194 L 325.247 88.1628 L 325.171 88.2388 L 324.867 88.2268 L 324.856 88.2267 L 324.801 88.3574 L 324.801 88.3574 L 324.312 88.41 L 324.312 88.41 L 324.084 88.5618 L 324.084 88.5618 L 323.572 88.8434 L 323.572 88.8434 L 323.605 88.9199 L 323.605 88.9417 L 323.593 89.0397 L 323.583 89.0615 L 323.528 89.203 L 323.528 89.2139 L 323.503 90.1077 L 323.503 90.1295 L 323.46 90.0422 L 323.416 90.0311 L 322.832 89.6039 L 322.81 89.5929 L 322.756 89.5709 L 322.636 89.5378 L 322.376 89.4824 L 322.365 89.4823 L 322.094 89.5032 L 322.018 89.492 L 321.942 89.4482 L 321.931 89.4263 L 321.91 89.3063 L 321.899 89.2845 L 321.856 89.2407 L 321.823 89.2297 L 321.143 88.0609 L 321.132 88.0281 L 321.057 87.6899 L 321.079 87.6681 L 320.994 87.308 L 320.994 87.2753 L 320.572 86.6415 L 320.54 86.6741 L 319.909 86.9992 L 319.876 86.9882 L 319.04 87.0291 L 318.986 86.9526 L 318.573 87.0495 L 318.54 87.0385 L 318.292 86.7215 L 318.248 86.6341 L 318.045 85.772 L 317.979 85.7609 L 317.806 85.7713 L 317.762 85.7711 L 317.821 84.1571 L 317.854 84.059 L 318.433 83.1554 L 318.433 83.0899 L 318.466 82.9373 L 318.499 82.861 L 318.673 82.6543 L 318.684 82.6325 L 318.652 82.3815 L 318.609 82.305 L 318.512 82.0647 L 318.501 81.9773 L 318.437 81.6826 L 318.437 81.6826 L 318.644 81.5523 L 318.698 81.4979 L 318.72 81.4652 L 318.72 81.4543 L 319.028 80.2113 L 319.039 80.1895 L 319.595 79.6129 L 319.552 79.5691 L 318.38 79.0634 L 318.38 79.0634 L 318.369 79.0525 L 318.358 79.0306 L 317.848 78.8763 L 317.837 78.8762 L 317.445 79.006 L 317.423 79.006 L 317.304 78.9729 L 317.25 78.9509 L 317.228 78.9399 L 317.196 78.918 L 317.065 78.8849 L 317.054 78.8848 L 317.022 78.9175 L 317 78.9502 L 316.945 79.0701 L 316.934 79.07 L 316.891 79.1136 L 316.869 79.1135 L 316.847 79.1244 L 316.836 79.1243 L 316.793 79.1133 L 316.793 79.1133 L 316.76 79.0914 L 316.717 79.0476 L 316.652 79.0692 L 316.652 79.0801 L 316.65 79.6258 L 316.65 79.6476 L 316.595 79.8112 L 316.595 79.833 L 316.464 80.0946 L 316.453 80.1163 L 316.235 80.2903 L 316.235 80.3012 L 315.941 80.5296 L 315.941 80.5296 L 315.843 80.7257 L 315.843 80.7257 L 315.69 81.0854 L 315.701 81.1073 L 315.613 81.2052 L 315.592 81.2052 L 315.559 81.216 L 315.537 81.2159 L 315.374 81.2264 L 315.363 81.2373 L 315.341 81.2699 L 315.331 81.2699 L 314.928 81.498 L 314.928 81.498 L 314.819 81.6504 L 314.786 81.6831 L 314.743 81.7157 L 314.732 81.7266 L 314.558 81.9007 L 314.557 81.9116 L 312.575 83.9467 L 312.564 83.9685 L 311.121 83.147 L 311.111 83.1361 L 310.189 82.0649 L 310.168 82.054 L 309.831 81.9005 L 309.82 81.8896 L 309.106 80.3823 L 309.03 80.3058 L 308.987 80.1311 L 308.987 80.0875 L 309.053 79.793 L 309.053 79.782 L 309.064 79.7602 L 309.064 79.7384 L 309.075 79.5311 L 309.075 79.5311 L 309.054 79.4546 L 309.043 79.4328 L 309.185 79.1384 L 309.185 79.1275 L 309.207 78.942 L 309.196 78.9202 L 309.196 78.8001 L 309.196 78.8001 L 309.175 78.7346 L 309.175 78.6145 L 309.197 78.5163 L 309.208 78.4945 L 309.241 78.3963 L 309.241 78.3745 L 309.393 78.0474 L 309.393 78.0365 L 309.252 78.0907 L 309.176 78.1124 L 308.773 78.3408 L 308.762 78.3517 L 307.058 76.864 L 307.102 76.7331 L 306.682 74.6252 L 306.638 74.5923 L 306.497 74.4174 L 306.443 74.3736 L 306.432 74.3081 L 306.476 74.2426 L 305.491 71.4669 L 305.414 71.4668 L 305 71.9577 L 304.88 72.0886 L 301.9 71.877 L 301.857 71.7677 L 301.614 65.43 L 305.301 60.2415 L 308.598 62.3579 L 314.506 59.7139 L 320.935 62.3905 L 329.745 59.7013 L 339.426 64.0569 L 347.576 59.5452 L 355.933 60.7725 L 365.759 57.8747 L 368.136 61.3622 L 376.009 59.1156 L 385.518 62.3176 L 393.921 62.5423 L 407.812 54.3904 L 414.201 47.8867 L 417.186 38.1112 L 417.003 27.9179 L 421.497 25.6013 L 432.096 45.953 L 431.096 48.5326 L 436.628 55.6822 L 443.119 69.9274 L 446.17 79.0208 L 445.965 83.3596 L 453.013 94.2555 L 457.852 98.3313 L 457.512 100.317 L 461.044 106.142 L 466.826 112.453 L 466.837 115.203 L 471.522 121.794 L 478.386 128.753 L 478.265 130.921 L 482.017 132.335 L 488.79 140.755 L 487.433 145.081 L 494.273 152.272 L 493.941 156.993 L 497.339 162.003 L 496.062 161.325 L 495.21 163.306 L 497.023 162.179 L 501.129 167.117 L 502.397 172.31 L 508.111 176.214 L 507.224 178.277 L 508.946 183.109 L 514 187.309 L 517.352 193.698 L 515.874 194.911 L 515.716 198.698 L 518.076 204.301 L 514.265 205.025 L 511.378 208.311 L 509.211 208.001 L 504.761 213.241 L 505.958 217.408 L 500.926 217.075 L 499.086 213.722 L 492.305 209.988 L 488.678 214.307 L 475.651 211.001 L 472.85 216.708 L 468.499 215.87 L 467.003 212.959 L 461.964 210.97 L 460.552 214.374 L 459.784 213.65 L 459.242 218.671 L 447.997 213.547 L 446.938 211.593 L 445.321 212.867 L 437.245 209.636 L 436.267 210.513 L 436.301 208.394 L 434.164 207.295 L 427.892 209.759 L 423.983 202.997 L 421.621 204.028 L 419.459 203.072 L 415.571 205.956 L 412.527 202.761 L 415.741 201.34 L 419.096 196.034 L 417.402 195.17 L 412.882 197.026 L 407.066 192.09 L 402.87 196.401 L 399.275 193.793 L 397.204 197.54 L 390.93 199.354 L 388.879 192.565 L 384.332 191.127 L 379.562 194.894 L 381.063 199.402 L 380.028 202.202 L 378.326 201.949 L 377.459 204.018 L 374.709 202.292 L 366.97 204.711 L 363.495 200.871 Z" /><path id="path-8" d="M 265.857 210.953 L 266.408 212.845 L 265.232 213.396 Z M 232.453 208.44 L 233.032 210.147 L 231.593 209.511 Z M 254.825 200.54 L 255.782 201.063 L 254.118 203.374 Z M 251.014 187.321 L 249.777 189.311 L 254.293 190.887 L 254.894 193.59 L 257.593 194.992 L 257.211 199.055 L 254.819 193.645 L 252.678 194.764 L 254.104 197.128 L 250.534 195.366 L 249.177 198.884 L 247.872 197.414 L 246.482 198.229 L 247.148 193.948 L 249.721 193.559 L 246.267 187.301 L 248.926 188.657 L 250.343 186.278 Z M 246.326 127.801 L 244.71 128.798 L 244.935 126.321 Z M 304.88 72.0886 L 305 71.9577 L 305.414 71.4668 L 305.491 71.4669 L 306.476 74.2426 L 306.432 74.3081 L 306.443 74.3736 L 306.497 74.4174 L 306.638 74.5923 L 306.682 74.6252 L 307.102 76.7331 L 307.058 76.864 L 308.762 78.3517 L 308.773 78.3408 L 309.176 78.1124 L 309.252 78.0907 L 309.393 78.0365 L 309.393 78.0474 L 309.241 78.3745 L 309.241 78.3963 L 309.208 78.4945 L 309.197 78.5163 L 309.175 78.6145 L 309.175 78.7346 L 309.196 78.8001 L 309.196 78.8001 L 309.196 78.9202 L 309.207 78.942 L 309.185 79.1275 L 309.185 79.1384 L 309.043 79.4328 L 309.054 79.4546 L 309.075 79.5311 L 309.075 79.5311 L 309.064 79.7384 L 309.064 79.7602 L 309.053 79.782 L 309.053 79.793 L 308.987 80.0875 L 308.987 80.1311 L 309.03 80.3058 L 309.106 80.3823 L 309.82 81.8896 L 309.831 81.9005 L 310.168 82.054 L 310.189 82.0649 L 311.111 83.1361 L 311.121 83.147 L 312.564 83.9685 L 312.575 83.9467 L 314.557 81.9116 L 314.558 81.9007 L 314.732 81.7266 L 314.743 81.7157 L 314.786 81.6831 L 314.819 81.6504 L 314.928 81.498 L 314.928 81.498 L 315.331 81.2699 L 315.341 81.2699 L 315.363 81.2373 L 315.374 81.2264 L 315.537 81.2159 L 315.559 81.216 L 315.592 81.2052 L 315.613 81.2052 L 315.701 81.1073 L 315.69 81.0854 L 315.843 80.7257 L 315.843 80.7257 L 315.941 80.5296 L 315.941 80.5296 L 316.235 80.3012 L 316.235 80.2903 L 316.453 80.1163 L 316.464 80.0946 L 316.595 79.833 L 316.595 79.8112 L 316.65 79.6476 L 316.65 79.6258 L 316.652 79.0801 L 316.652 79.0692 L 316.717 79.0476 L 316.76 79.0914 L 316.793 79.1133 L 316.793 79.1133 L 316.836 79.1243 L 316.847 79.1244 L 316.869 79.1135 L 316.891 79.1136 L 316.934 79.07 L 316.945 79.0701 L 317 78.9502 L 317.022 78.9175 L 317.054 78.8848 L 317.065 78.8849 L 317.196 78.918 L 317.228 78.9399 L 317.25 78.9509 L 317.304 78.9729 L 317.423 79.006 L 317.445 79.006 L 317.837 78.8762 L 317.848 78.8763 L 318.358 79.0306 L 318.369 79.0525 L 318.38 79.0634 L 318.38 79.0634 L 319.552 79.5691 L 319.595 79.6129 L 319.039 80.1895 L 319.028 80.2113 L 318.72 81.4543 L 318.72 81.4652 L 318.698 81.4979 L 318.644 81.5523 L 318.437 81.6826 L 318.437 81.6826 L 318.501 81.9773 L 318.512 82.0647 L 318.609 82.305 L 318.652 82.3815 L 318.684 82.6325 L 318.673 82.6543 L 318.499 82.861 L 318.466 82.9373 L 318.433 83.0899 L 318.433 83.1554 L 317.854 84.059 L 317.821 84.1571 L 317.762 85.7711 L 317.806 85.7713 L 317.979 85.7609 L 318.045 85.772 L 318.248 86.6341 L 318.292 86.7215 L 318.54 87.0385 L 318.573 87.0495 L 318.986 86.9526 L 319.04 87.0291 L 319.876 86.9882 L 319.909 86.9992 L 320.54 86.6741 L 320.572 86.6415 L 320.994 87.2753 L 320.994 87.308 L 321.079 87.6681 L 321.057 87.6899 L 321.132 88.0281 L 321.143 88.0609 L 321.823 89.2297 L 321.856 89.2407 L 321.899 89.2845 L 321.91 89.3063 L 321.931 89.4263 L 321.942 89.4482 L 322.018 89.492 L 322.094 89.5032 L 322.365 89.4823 L 322.376 89.4824 L 322.636 89.5378 L 322.756 89.5709 L 322.81 89.5929 L 322.832 89.6039 L 323.416 90.0311 L 323.46 90.0422 L 323.503 90.1295 L 323.503 90.1077 L 323.528 89.2139 L 323.528 89.203 L 323.583 89.0615 L 323.593 89.0397 L 323.605 88.9417 L 323.605 88.9199 L 323.572 88.8434 L 323.572 88.8434 L 324.084 88.5618 L 324.084 88.5618 L 324.312 88.41 L 324.312 88.41 L 324.801 88.3574 L 324.801 88.3574 L 324.856 88.2267 L 324.867 88.2268 L 325.171 88.2388 L 325.247 88.1628 L 325.291 88.1194 L 325.323 88.1195 L 326.257 88.0032 L 326.257 88.0032 L 326.323 87.8835 L 326.345 87.8727 L 326.421 87.8403 L 326.443 87.8185 L 326.595 87.7537 L 326.649 87.7212 L 326.802 87.5583 L 326.813 87.5474 L 326.814 87.373 L 326.814 87.3402 L 327.119 86.9598 L 327.13 86.9599 L 327.184 86.9492 L 327.195 86.9383 L 327.25 86.884 L 327.283 86.8296 L 327.836 86.8646 L 327.869 86.8647 L 327.955 87.1486 L 327.976 87.1596 L 328.15 87.1494 L 328.161 87.1385 L 328.356 87.1394 L 328.367 87.1394 L 328.65 87.1406 L 328.726 87.1627 L 328.791 87.2066 L 328.801 87.2176 L 329.073 87.2405 L 329.105 87.2406 L 329.236 87.2521 L 329.279 87.2523 L 329.648 87.2321 L 329.659 87.2321 L 329.768 87.2544 L 329.778 87.2653 L 329.843 87.3092 L 329.843 87.3092 L 329.854 87.4074 L 329.854 87.4183 L 329.886 87.582 L 329.886 87.582 L 329.918 87.604 L 329.929 87.6149 L 330.004 87.757 L 330.004 87.757 L 330.047 87.9207 L 330.047 87.9425 L 330.057 88.0516 L 330.068 88.0626 L 330.122 88.1827 L 330.133 88.1937 L 330.187 88.2266 L 330.198 88.2485 L 330.241 88.2923 L 330.252 88.3032 L 330.414 88.3912 L 330.414 88.3912 L 330.523 88.4243 L 330.533 88.4244 L 330.685 88.5668 L 330.717 88.5996 L 330.847 88.6438 L 330.847 88.6438 L 331.055 88.3286 L 331.055 88.3177 L 331.262 88.166 L 331.284 88.1552 L 331.316 88.1335 L 331.327 88.1227 L 331.36 88.101 L 331.382 88.0902 L 331.523 88.0145 L 331.534 88.0036 L 331.654 87.8406 L 331.665 87.8407 L 331.764 87.6776 L 331.764 87.6667 L 331.818 87.6233 L 331.818 87.6233 L 332.233 87.2545 L 332.243 87.2436 L 332.32 87.1458 L 332.342 87.1241 L 332.407 87.0481 L 332.418 87.0373 L 332.698 87.4856 L 332.709 87.4966 L 332.817 87.5843 L 332.817 87.5843 L 333.002 87.6179 L 333.013 87.6179 L 333.164 87.695 L 333.175 87.695 L 333.208 87.7061 L 333.208 87.7061 L 333.349 87.7613 L 333.349 87.7613 L 333.488 88.0999 L 333.499 88.1327 L 333.498 88.2962 L 333.498 88.3071 L 333.498 88.318 L 333.498 88.3289 L 333.518 88.6125 L 333.518 88.6234 L 333.561 88.6781 L 333.594 88.7219 L 333.817 89.715 L 333.828 89.7586 L 333.816 89.8785 L 333.816 89.9221 L 333.793 90.1945 L 333.793 90.2054 L 333.781 90.3907 L 333.781 90.4125 L 333.813 90.4889 L 333.813 90.4998 L 333.91 90.6529 L 333.91 90.6638 L 333.964 90.8166 L 333.964 90.8275 L 333.974 90.9039 L 333.974 90.9148 L 333.974 90.9475 L 333.974 90.9584 L 334.005 91.3073 L 334.005 91.3073 L 334.016 91.3291 L 334.016 91.34 L 334.016 91.3509 L 334.026 91.3619 L 333.993 91.4925 L 333.993 91.5034 L 333.917 91.612 L 333.917 91.6338 L 333.829 91.8405 L 333.829 91.8514 L 334.011 92.3645 L 334.011 92.3754 L 334.021 92.3972 L 334.021 92.4081 L 334.021 92.419 L 334.021 92.4299 L 334.032 92.4409 L 334.032 92.4409 L 333.988 92.5932 L 333.988 92.5932 L 333.998 92.8112 L 334.009 92.8331 L 334.008 92.8984 L 334.008 92.9093 L 333.986 92.9528 L 333.986 92.9528 L 333.953 93.0943 L 333.953 93.1161 L 333.964 93.1707 L 333.964 93.1707 L 333.964 93.1816 L 333.964 93.1816 L 333.941 93.3449 L 333.941 93.3449 L 333.886 93.5517 L 333.875 93.5625 L 333.852 93.715 L 333.852 93.7259 L 333.912 94.8375 L 333.901 94.8592 L 334.107 94.9365 L 334.237 95.0025 L 334.499 96.8339 L 334.499 96.8447 L 334.649 97.3138 L 334.735 97.4123 L 334.852 97.9683 L 334.841 98.0227 L 337.096 100.321 L 337.734 100.542 L 343.044 101.181 L 343.215 101.606 L 343.594 103.427 L 343.669 103.612 L 343.757 105.201 L 348.529 106.395 L 348.54 106.395 L 348.8 106.408 L 348.821 106.419 L 348.908 106.474 L 348.918 106.496 L 348.961 106.529 L 348.972 106.529 L 349.046 106.866 L 349.035 106.91 L 348.989 107.301 L 348.978 107.323 L 348.956 107.399 L 348.945 107.41 L 348.977 107.443 L 348.988 107.464 L 349.009 107.486 L 349.02 107.508 L 349.063 107.617 L 349.063 107.617 L 349.234 107.89 L 349.267 107.89 L 349.645 108.034 L 349.645 108.056 L 349.731 108.155 L 349.742 108.166 L 349.806 108.22 L 349.839 108.242 L 349.903 108.297 L 349.914 108.308 L 350.095 108.864 L 350.127 108.93 L 350.148 108.995 L 350.159 109.028 L 350.179 109.158 L 350.19 109.191 L 350.222 109.289 L 350.243 109.333 L 350.196 109.92 L 350.152 109.963 L 349.967 110.114 L 349.956 110.136 L 349.889 110.44 L 349.878 110.472 L 349.909 110.755 L 349.931 110.777 L 350.125 110.898 L 350.125 110.909 L 350.135 110.942 L 350.135 110.953 L 350.146 111.018 L 350.145 111.04 L 350.145 111.127 L 350.145 111.138 L 350.273 111.41 L 350.273 111.421 L 350.347 111.704 L 350.358 111.705 L 350.399 111.977 L 350.399 111.988 L 350.375 112.314 L 350.375 112.335 L 350.418 112.444 L 350.407 112.488 L 350.231 112.878 L 350.22 112.889 L 350.209 112.921 L 350.209 112.921 L 350.176 113.052 L 350.175 113.095 L 349.77 113.788 L 349.77 113.788 L 349.462 114.515 L 349.462 114.526 L 349.484 114.58 L 349.484 114.591 L 349.494 114.7 L 349.494 114.711 L 349.493 114.732 L 349.493 114.743 L 349.471 114.841 L 349.471 114.852 L 349.543 115.363 L 349.543 115.385 L 349.532 115.407 L 349.532 115.407 L 349.5 115.461 L 349.467 115.526 L 349.401 115.71 L 349.39 115.732 L 349.007 116.327 L 348.996 116.338 L 348.79 116.326 L 348.79 116.326 L 348.218 116.181 L 348.218 116.181 L 348.077 116.191 L 348.055 116.191 L 347.99 116.19 L 347.969 116.201 L 347.687 116.188 L 347.655 116.177 L 347.558 116.166 L 347.536 116.166 L 347.514 116.165 L 347.493 116.176 L 347.005 116.325 L 346.972 116.336 L 346.907 116.357 L 346.885 116.357 L 346.831 116.378 L 346.798 116.389 L 346.255 116.766 L 346.244 116.788 L 346.244 116.799 L 346.233 116.81 L 346.059 117.015 L 346.059 117.026 L 345.993 117.102 L 345.982 117.101 L 345.874 117.155 L 345.874 117.155 L 345.863 117.177 L 345.863 117.188 L 345.754 117.35 L 345.743 117.372 L 345.556 117.773 L 345.545 117.794 L 345.534 117.816 L 345.512 117.859 L 345.434 118.294 L 345.412 118.315 L 345.326 118.358 L 345.315 118.358 L 345.217 118.477 L 345.162 118.607 L 344.468 118.798 L 344.447 118.787 L 344.327 118.83 L 344.327 118.83 L 344.153 118.938 L 344.143 118.949 L 344.055 119.046 L 344.055 119.046 L 344.023 119.067 L 344.023 119.067 L 344.001 119.078 L 344.001 119.078 L 343.967 119.284 L 343.967 119.284 L 343.967 119.306 L 343.956 119.317 L 343.956 119.339 L 343.956 119.339 L 343.956 119.415 L 343.956 119.426 L 343.945 119.447 L 343.945 119.447 L 343.934 119.534 L 343.934 119.534 L 343.934 119.545 L 343.934 119.545 L 343.846 119.718 L 343.824 119.729 L 343.651 119.739 L 343.619 119.739 L 343.575 119.738 L 343.554 119.738 L 343.413 119.738 L 343.37 119.737 L 342.817 119.897 L 342.774 119.919 L 342.132 120.425 L 342.067 120.501 L 341.474 122.04 L 341.474 122.04 L 342.527 123.274 L 342.549 123.317 L 342.677 123.666 L 342.676 123.72 L 342.653 124.089 L 342.642 124.121 L 342.631 124.143 L 342.62 124.176 L 341.945 124.878 L 341.923 124.91 L 341.705 125.332 L 341.705 125.343 L 341.268 126.014 L 341.247 126.046 L 341.191 126.274 L 341.181 126.285 L 341.63 127.134 L 341.662 127.178 L 341.856 127.374 L 341.909 127.429 L 342.253 127.887 L 342.285 127.93 L 342.521 128.214 L 342.575 128.29 L 342.811 128.628 L 342.843 128.682 L 342.993 128.922 L 343.014 128.955 L 343.281 129.542 L 343.302 129.608 L 343.396 130.151 L 343.396 130.173 L 343.176 130.812 L 343.144 130.855 L 342.578 131.438 L 342.535 131.481 L 341.472 132.234 L 341.418 132.277 L 341.287 132.353 L 341.277 132.363 L 340.713 132.729 L 340.583 132.826 L 340.311 133.042 L 340.268 133.085 L 339.815 135.002 L 339.815 135.002 L 341.004 134.814 L 341.047 134.76 L 341.46 134.35 L 341.558 134.285 L 342.343 134.854 L 342.72 135.105 L 343.194 135.173 L 343.466 134.947 L 344.831 134.163 L 344.819 134.412 L 345.087 134.837 L 345.107 134.989 L 344.932 135.476 L 344.91 135.509 L 343.83 141.075 L 343.819 141.097 L 342.496 144.048 L 344.782 146.217 L 348.942 143.448 L 350.586 144.444 L 350.608 144.445 L 352.413 145.605 L 352.423 145.627 L 354.896 146.847 L 354.896 146.847 L 355.676 147.924 L 355.741 147.936 L 358.345 150.153 L 358.356 150.186 L 360.637 150.853 L 360.776 150.908 L 362.912 150.838 L 362.944 150.838 L 363.474 150.626 L 363.485 150.615 L 367.574 151.559 L 372.67 155.641 L 372.67 155.641 L 366.806 159.68 L 366.751 159.831 L 364.077 161.442 L 364.077 161.453 L 364.041 161.971 L 364.041 161.971 L 364.048 162.426 L 364.048 162.447 L 364.465 162.743 L 364.465 162.732 L 367.278 165.004 L 367.278 165.004 L 367.702 167.062 L 367.724 167.073 L 367.837 167.679 L 367.837 167.679 L 367.889 167.928 L 367.889 167.928 L 368.071 169.356 L 368.07 169.367 L 368.259 169.973 L 368.259 169.984 L 367.322 171.435 L 367.321 171.446 L 365.552 177.392 L 365.444 177.445 L 364.032 177.877 L 364.032 177.887 L 364.05 182.313 L 364.061 182.334 L 364.289 183.426 L 364.288 183.437 L 364.878 184.887 L 364.889 184.92 L 363.946 185.915 L 363.914 185.915 L 363.63 189.256 L 363.63 189.277 L 363.692 189.591 L 363.692 189.591 L 362.871 192.926 L 362.871 192.926 L 363.173 195.439 L 357.553 205.509 L 351.478 203.572 L 352.059 209.807 L 348.801 211.787 L 349.12 213.832 L 346.436 213.181 L 344.658 216.945 L 340.632 215.073 L 339.566 216.304 L 336.047 215.705 L 334 220.758 L 328.803 222.497 L 329.333 226.356 L 319.504 230.615 L 320.311 232.27 L 318.946 234.831 L 317.382 232.412 L 311.349 230.432 L 310.499 227.832 L 301.874 225.338 L 300.533 229.374 L 299.39 228.342 L 294.172 230.679 L 290.687 229.82 L 282.503 233.527 L 281.581 230.394 L 276.338 227.417 L 274.383 222.651 L 269.771 221.844 L 271.695 221.109 L 271.401 218.971 L 266.625 217.704 L 269.057 214.397 L 268.067 207.988 L 273.396 204.898 L 270.125 203.786 L 271.987 202.436 L 271.68 199.184 L 269.81 202.258 L 266.958 202.039 L 260.997 208.612 L 259.722 205.538 L 261.795 203.744 L 261.296 201.873 L 257.464 203.48 L 257.838 200.302 L 259.421 199.316 L 257.569 200.109 L 257.63 199.075 L 262.243 196.344 L 259.685 197.979 L 260.158 195.155 L 257.516 191.468 L 259.345 192.862 L 261.054 190.442 L 267.799 191.37 L 270.606 194.036 L 269.819 192.465 L 270.904 192.656 L 271.187 189.691 L 272.927 189.903 L 272.353 187.683 L 276.707 190.338 L 273.488 186.181 L 269.483 186.568 L 261.09 181.888 L 261.213 180.042 L 265.263 175.419 L 266.339 175.848 L 266.055 174.251 L 266.066 174.24 L 266.227 174.056 L 266.269 174.002 L 267.565 171.73 L 267.565 171.73 L 269.141 169.684 L 269.152 169.662 L 268.902 168.625 L 268.88 168.604 L 269.918 166.04 L 269.918 166.029 L 269.41 165.165 L 269.41 165.165 L 269.227 165.144 L 269.216 165.177 L 268.041 164.617 L 268.041 164.607 L 266.391 163.389 L 266.565 160.339 L 266.587 160.296 L 268.112 158.42 L 268.112 158.387 L 268.825 155.215 L 271.395 157.449 L 274.045 156.848 L 274.006 164.766 L 276.278 164.946 L 278.524 162.358 L 281.795 169.748 L 284.279 167.8 L 285.313 169.518 L 287.497 168.955 L 291.447 165.733 L 292.178 167.171 L 294.299 166.004 L 294.567 169.138 L 297.429 170.361 L 300.37 166.44 L 302.328 166.788 L 305.464 164.382 L 306.61 161.745 L 304.534 159.903 L 306.791 156.325 L 308.742 156.232 L 308.179 151.988 L 300.834 154.51 L 302.362 147.517 L 301.058 146.898 L 301.805 144.537 L 299.379 142.887 L 300.364 139.246 L 298.973 137.987 L 295.992 139.124 L 292.645 137.42 L 290.324 140.033 L 288.75 145.864 L 286.061 142.528 L 282.026 143.745 L 281.505 150.895 L 280.092 150.409 L 278.219 152.642 L 272.197 149.112 L 271.534 151.712 L 270.002 151.575 L 269.97 151.554 L 267.373 152.112 L 267.352 152.123 L 265.849 150.579 L 265.838 150.579 L 265.763 150.85 L 265.752 150.85 L 265.191 150.603 L 265.126 150.527 L 264.424 150.161 L 264.402 150.128 L 264.089 149.88 L 264.067 149.87 L 263.396 149.07 L 263.364 149.07 L 263.105 149.093 L 262.966 149.256 L 262.718 149.332 L 262.685 149.17 L 258.41 145.014 L 258.388 144.993 L 254.997 149.479 L 255.008 149.436 L 252.842 149.997 L 252.842 149.997 L 249.236 151.248 L 245.907 143.248 L 246.514 141.631 L 246.276 141.437 L 245.365 140.552 L 245.362 140.119 L 245.247 136.585 L 244.896 135.545 L 245.795 131.668 L 244.519 129.417 L 253.637 131.121 L 259.156 127.29 L 259.611 121.413 L 267.869 119.085 L 263.595 112.042 L 259.239 111.317 L 259.482 106.465 L 264.094 108.876 L 266.602 106.932 L 265.839 105.237 L 267.925 103.109 L 269.215 111.755 L 270.816 111.174 L 271.797 114.119 L 273.679 113.202 L 275.463 105.421 L 273.144 105.48 L 272.075 102.326 L 274.827 101.852 L 274.981 96.9624 L 279.203 98.4913 L 280.952 92.1159 L 276.748 89.5059 L 275.381 90.304 L 276.372 92.1878 L 273.753 90.2308 L 270.172 90.8708 L 270.439 88.8971 L 266.925 86.3656 L 269.022 82.2042 L 278.93 73.8564 L 281.075 76.1248 L 286.478 75.3122 L 287.251 78.0847 L 289.577 75.3437 L 288.804 72.461 L 290.914 72.9521 L 290.871 71.5759 L 301.614 65.43 L 301.857 71.7677 L 301.9 71.877 Z" /><path id="path-9" d="M 526.575 392.054 L 527.107 394.282 L 524.494 401.091 L 525.969 401.686 L 524.505 403.21 L 522.095 403.972 L 521.797 400.667 L 517.889 400.003 L 520.483 402.078 L 518.14 405.741 L 515.286 402.702 L 517.198 407.878 L 518.301 407.346 L 516.27 414.783 L 517.988 416.981 L 512.34 420.709 L 509.974 419.297 L 510.289 416.505 L 508.576 414.003 L 502.631 414.163 L 504.234 411.378 L 501.976 407.768 L 499.011 408.629 L 493.339 401.194 L 482.58 397.206 L 482.724 395.248 L 480.313 393.49 L 485.054 390.654 L 484.057 385.462 L 486.672 385.03 L 487.652 382.907 L 490.905 383.704 L 489.596 380.413 L 491.148 377.129 L 497.095 374.097 L 499.697 375.402 L 503 374.472 L 507.69 376.925 L 507.591 381.687 L 511.437 383.593 L 517.108 379.408 L 525.793 382.462 L 525.482 385.252 L 527.682 388.906 Z" /><path id="path-10" d="M 329.345 283.229 L 329.944 287.329 L 334.626 287.937 L 337.595 284.644 L 337.138 287.01 L 339.377 287.47 L 338.089 290.013 L 340.089 293.542 L 340.621 291.253 L 343.38 291.556 L 344.618 294.239 L 341.49 295.448 L 338.881 303.511 L 338.975 303.671 L 338.924 305.375 L 338.765 305.47 L 338.429 313.196 L 333.575 318.416 L 328.363 313.629 L 328.473 309.969 L 326.038 309.427 L 326.132 315.354 L 323.184 319.725 L 321.314 315.061 L 318.173 313.477 L 319.105 309.957 L 315.073 307.796 L 317.798 300.039 L 318.224 292.173 L 323.826 290.218 L 325.806 283.044 L 327.862 281.921 Z" /><path id="path-11" d="M 282.331 429.02 L 286.121 432.328 L 288.121 438.178 L 291.09 437.306 L 293.254 439.301 L 290.004 448.265 L 286.507 450.846 L 283.258 448.677 L 277.276 450.247 L 273.752 453.252 L 271.464 452.24 L 269.671 453.177 L 267.402 451.84 L 269.102 450.871 L 265.393 446.065 L 259.494 447.111 L 258.028 445.92 L 257.179 442.344 L 259.645 439.197 L 257.829 436.829 L 260.171 436.99 L 261.103 434.129 L 264.033 434.541 L 265.903 429.723 L 268.203 429.075 L 267.656 431.904 L 272.44 433.785 Z" /><path id="path-12" d="M 234.652 172.493 L 237.585 175.628 L 235.224 178.061 L 233.139 174.792 Z M 230.222 164.871 L 236.617 161.304 L 241.496 161.265 L 244.449 157.549 L 249.416 160.002 L 251.293 163.022 L 243.836 165.913 L 237.538 171.341 L 235.429 171.289 L 233.054 168.213 L 231.697 169.681 L 230.077 168.838 Z M 252.842 149.997 L 252.842 149.997 L 255.008 149.436 L 254.997 149.479 L 258.388 144.993 L 258.41 145.014 L 262.685 149.17 L 262.718 149.332 L 262.966 149.256 L 263.105 149.093 L 263.364 149.07 L 263.396 149.07 L 264.067 149.87 L 264.089 149.88 L 264.402 150.128 L 264.424 150.161 L 265.126 150.527 L 265.191 150.603 L 265.752 150.85 L 265.763 150.85 L 265.838 150.579 L 265.849 150.579 L 267.352 152.123 L 267.373 152.112 L 269.97 151.554 L 270.002 151.575 L 271.276 152.427 L 268.491 155.075 L 268.112 158.387 L 268.112 158.42 L 266.587 160.296 L 266.565 160.339 L 266.391 163.389 L 268.041 164.607 L 268.041 164.617 L 269.216 165.177 L 269.227 165.144 L 269.41 165.165 L 269.41 165.165 L 269.918 166.029 L 269.918 166.04 L 268.88 168.604 L 268.902 168.625 L 269.152 169.662 L 269.141 169.684 L 267.565 171.73 L 267.565 171.73 L 266.269 174.002 L 266.227 174.056 L 266.066 174.24 L 266.055 174.251 L 258.582 180.72 L 254.391 180.769 L 253.128 171.758 L 255.893 169.089 L 253.504 168.958 L 253.745 167.401 L 252.051 168.878 L 251.996 166.046 L 255.056 166.866 L 253.905 164.557 L 252.304 165.18 L 253.319 163.435 L 255.774 163.295 L 256.67 161.085 L 253.142 162.16 L 253.306 155.235 L 250.098 151.147 Z M 244.896 135.545 L 245.247 136.585 L 245.362 140.119 L 245.365 140.552 L 246.276 141.437 L 246.514 141.631 L 247.684 149.09 L 244.908 150.468 L 244.917 152.103 L 243.174 150.856 L 241.238 151.657 L 240.571 149.972 L 233.888 150.38 L 230.649 148.236 L 230.09 145.315 L 234.006 143.512 L 232.276 142.916 L 232.259 138.721 L 228.076 135.052 L 228.621 126.378 L 232.941 122.309 L 237.047 121.609 L 243.892 127.434 L 245.709 131.744 Z M 220.63 123.484 L 223.314 125.157 L 226.303 124.299 L 227.308 125.714 L 223.069 129.946 L 221.236 129.038 L 216.897 131.113 L 214.59 129.136 L 216.401 124.745 Z M 218.745 135.112 L 215.957 134.972 L 217.457 133.43 Z M 226.679 131.482 L 225.909 135.588 L 231.564 139.702 L 228.914 143.773 L 226.331 144.648 L 225.583 139.765 L 220.839 136.288 L 222.379 135.745 L 222.86 132.205 Z M 217.49 142.82 L 219.814 143.289 L 220.188 146.926 L 217.455 145.052 L 216.416 143.392 Z M 213.874 138.872 L 215.107 143.046 L 209.983 140.858 Z M 207.587 138.56 L 209.023 139.761 L 207.231 139.745 Z M 167.843 139.964 L 166.474 142.475 L 167.481 143.502 L 164.769 143.269 L 164.151 139.961 Z M 67.3715 103.406 L 70.8272 103.352 L 73.1641 106.308 L 71.9265 105.762 L 72.1105 107.085 L 69.2612 108.384 L 67.5014 107.308 L 69.1283 108.703 L 68.3391 111.376 L 62.7636 110.55 L 60.2296 105.917 L 60.6404 103.773 L 63.1091 104.972 Z M 75.3096 127.945 L 75.1092 129.501 L 71.1742 130.314 L 72.4592 128.057 Z M 69.5242 120.345 L 71.301 120.464 L 69.9178 121.834 L 70.5427 123.502 L 66.8457 125.711 L 67.0072 123.948 L 64.9452 122.784 L 66.3674 123.009 L 68.8327 119.504 Z M 194.252 217.964 L 196.543 219.1 L 194.721 219.861 L 193.382 218.682 Z M 190.962 211.763 L 190.457 213.543 L 189.592 212.757 Z M 204.459 199.569 L 206.137 200.145 L 205.685 202.206 L 203.249 200.851 Z M 211.527 194.764 L 213.552 196.879 L 212.742 198.825 L 212.123 196.612 L 210.578 196.668 Z M 205.455 189.193 L 206.503 192.18 L 211.081 194.078 L 208.642 198.453 L 208.773 196.286 L 206.397 196.89 L 205.021 194.414 L 203.175 195.391 Z M 202.781 209.026 L 203.665 210.663 L 201.611 212.049 L 202.228 210.58 L 200.983 210.249 Z M 223.484 200.968 L 226.413 202.669 L 224.518 203.038 Z M 219.811 200.307 L 222.203 203.142 L 218.51 201.157 Z M 216.061 199.379 L 219.059 200.054 L 216.243 200.637 Z M 225.907 196.491 L 224.813 196.542 L 225.405 195.234 Z M 222.72 189.282 L 228.626 190.867 L 225.547 192.668 L 222.046 190.894 Z M 245.243 190.853 L 246.912 194.143 L 244.195 191.56 Z M 240.34 187.44 L 242.881 188.709 L 243.28 191.069 L 240.899 191.534 L 241.497 192.943 L 239.149 195.144 L 236.523 193.845 L 236.192 190.494 Z M 239.422 156.398 L 240.306 160.352 L 236.414 159.791 Z M 236.684 156.392 L 236.301 158.937 L 234.988 159.086 Z M 224.731 154.449 L 232.062 158.023 L 226.488 159.003 Z" /><path id="path-13" d="M 453.859 339.561 L 456.782 340.928 L 458.7 344.684 L 457.944 349.854 L 460.4 355.228 L 459.268 358.426 L 456.822 358.425 L 455.135 362.132 L 456.012 364.391 L 452.617 366.416 L 453.445 373.389 L 446.93 376.619 L 446.311 372.634 L 441.289 372.732 L 437.701 375.403 L 438.327 379.132 L 435.85 380.151 L 435.715 384.151 L 429.983 384.297 L 428.389 386.249 L 422.901 387.828 L 425.795 383.878 L 421.747 380.081 L 420.826 376.645 L 427.111 377.844 L 428.696 376.662 L 428.567 373.912 L 424.143 369.703 L 427.499 364.049 L 432.154 364.192 L 433.292 362.781 L 430.918 360.099 L 424.565 359.223 L 424.294 356.731 L 427.247 350.83 L 430.672 348.231 L 432.78 349.079 L 432.031 353.348 L 435.254 355.008 L 438.356 349.515 L 437.875 343.804 L 440.12 346.066 L 446.393 340.717 Z" /><path id="path-14" d="M 468.245 451.269 L 469.559 451.871 L 468.307 452.414 L 467.859 459.742 L 466.536 460.807 L 463.588 453.082 Z M 488.758 447.614 L 491.974 450.104 L 490.786 451.033 L 491.81 453.487 L 486.288 449.461 Z M 503.394 414.717 L 508.576 414.003 L 510.289 416.505 L 509.974 419.297 L 512.16 421.672 L 510.164 421.058 L 508.354 422.394 L 508.117 426.373 L 505.587 428.607 L 507.454 429.29 L 504.685 437.61 L 502.274 438.396 L 500.508 441.255 L 495.887 440.398 L 494.399 441.573 L 494.999 447.787 L 490.3 447.258 L 489.466 444.187 L 488.171 444.664 L 486.847 448.12 L 485.582 448.199 L 484.636 453.181 L 483.604 449.501 L 482.454 449.572 L 483.121 453.78 L 480.501 452.763 L 481.399 453.808 L 479.692 455.2 L 478.856 447.77 L 476.787 449.46 L 477.03 446.581 L 475.716 449.209 L 473.068 450.123 L 473.575 445.412 L 471.784 452.363 L 469.561 451.221 L 471.127 450.097 L 467.224 449.992 L 466.094 447.811 L 468.016 446.105 L 463.336 440.877 L 469.576 439.701 L 471.087 441.608 L 470.674 435.731 L 471.987 434.328 L 482.678 432.026 L 484.342 427.299 L 493.715 423.479 L 495.729 416.453 L 500.208 418.129 L 502.154 416.3 L 501.8 414.303 Z" /><path id="path-15" d="M 293.002 137.409 L 295.992 139.124 L 298.541 137.987 L 300.322 138.899 L 299.379 142.887 L 301.805 144.537 L 301.058 146.898 L 302.48 148.773 L 300.46 151.771 L 300.834 154.51 L 308.179 151.988 L 308.742 156.232 L 306.791 156.325 L 304.534 159.903 L 306.61 161.745 L 305.464 164.382 L 302.328 166.788 L 300.37 166.44 L 297.902 170.253 L 294.567 169.138 L 294.267 165.982 L 292.178 167.171 L 291.231 165.733 L 287.497 168.955 L 285.313 169.518 L 284.279 167.8 L 281.795 169.748 L 278.524 162.358 L 276.278 164.946 L 274.006 164.766 L 274.045 156.848 L 271.395 157.449 L 268.491 155.075 L 271.276 152.427 L 272.099 149.101 L 276.818 152.622 L 281.505 150.895 L 282.026 143.745 L 286.04 142.517 L 289.354 145.463 L 290.324 140.033 Z" /><text id="label-0" text-anchor="middle" transform="translate(248.354 646.573)" dy="0.35em"></text><text id="label-1" text-anchor="middle" transform="translate(412.153 421.224)" dy="0.35em"></text><text id="label-2" text-anchor="middle" transform="translate(459.075 299.621)" dy="0.35em"></text><text id="label-3" text-anchor="middle" transform="translate(281.074 473.678)" dy="0.35em"></text><text id="label-4" text-anchor="middle" transform="translate(305.251 375.244)" dy="0.35em"></text><text id="label-5" text-anchor="middle" transform="translate(277.967 278.019)" dy="0.35em"></text><text id="label-6" text-anchor="middle" transform="translate(370.718 253.297)" dy="0.35em"></text><text id="label-7" text-anchor="middle" transform="translate(415.533 133.474)" dy="0.35em"></text><text id="label-8" text-anchor="middle" transform="translate(308.431 184.04)" dy="0.35em"></text><text id="label-9" text-anchor="middle" transform="translate(505.96 394.155)" dy="0.35em"></text><text id="label-10" text-anchor="middle" transform="translate(329.044 301.067)" dy="0.35em"></text><text id="label-11" text-anchor="middle" transform="translate(275.306 441.153)" dy="0.35em"></text><text id="label-12" text-anchor="middle" transform="translate(231.017 151.129)" dy="0.35em"></text><text id="label-13" text-anchor="middle" transform="translate(441.365 361.477)" dy="0.35em"></text><text id="label-14" text-anchor="middle" transform="translate(488.722 435.747)" dy="0.35em"></text><text id="label-15" text-anchor="middle" transform="translate(290.236 155.426)" dy="0.35em"></text></g></svg>